<?xml version="1.0" standalone="no"?>
<!DOCTYPE svg PUBLIC "-//W3C//DTD SVG 1.1//EN" "http://www.w3.org/Graphics/SVG/1.1/DTD/svg11.dtd" >
<svg xmlns="http://www.w3.org/2000/svg" xmlns:xlink="http://www.w3.org/1999/xlink" version="1.1">
<metadata>
Created by FontForge 20170910 at Fri Feb  8 13:10:03 2013
 By Jimmy Wärting
Copyright (c) Yuri Gordon, Letterhead Studio, 2003. All rights reserved.
</metadata>
<defs>
<font id="hAndy" horiz-adv-x="1433" >
  <font-face 
    font-family="hAndy"
    font-weight="400"
    font-stretch="normal"
    units-per-em="2048"
    panose-1="2 0 5 3 0 0 0 0 0 0"
    ascent="1638"
    descent="-410"
    x-height="1024"
    cap-height="1434"
    bbox="-424 -565 2359 1960"
    underline-thickness="102"
    underline-position="-307"
    unicode-range="U+0020-25CA"
  />
<missing-glyph horiz-adv-x="250" 
 />
    <glyph glyph-name=".notdef" horiz-adv-x="250" 
 />
    <glyph glyph-name=".null" horiz-adv-x="0" 
 />
    <glyph glyph-name="nonmarkingreturn" horiz-adv-x="682" 
 />
    <glyph glyph-name="space" unicode=" " horiz-adv-x="512" 
 />
    <glyph glyph-name="exclam" unicode="!" horiz-adv-x="604" 
d="M502 1212q0 -112 -13.5 -218.5t-44.5 -261.5t-41 -218q-3 -20 -28 -32.5t-47 -12.5q-28 0 -56 17.5t-32 43.5q-7 37 -46 206.5t-65.5 305.5t-26.5 189q0 65 21.5 124t69.5 100.5t114 41.5q42 0 86 -14t64 -43q45 -67 45 -228zM481 156q0 -83 -60.5 -127.5t-144.5 -44.5
q-78 28 -117.5 78t-39.5 131q0 77 58 131.5t136 54.5q77 0 122.5 -70.5t45.5 -152.5z" />
    <glyph glyph-name="quotedbl" unicode="&#x22;" horiz-adv-x="817" 
d="M715 1528q0 -55 -9 -122t-18.5 -113t-28.5 -125.5t-26 -112.5h-107q-8 46 -29 145.5t-33.5 179.5t-12.5 146q0 62 37 96.5t100 34.5q53 0 90 -38t37 -91zM367 1528q0 -55 -9 -121.5t-19.5 -114t-28 -124t-25.5 -113.5h-107q-8 47 -29 145.5t-34 179t-13 146.5
q0 62 37.5 96.5t100.5 34.5q53 0 90 -38t37 -91z" />
    <glyph glyph-name="numbersign" unicode="#" horiz-adv-x="1069" 
d="M967 930l-9 -137h-170l-36 -218h155l13 -151l-213 8l-48 -172h-149l37 170h-191l-30 -151l-154 10l41 137l-111 4l15 145h121l45 224h-168l16 149h172l39 154h139l-24 -160l209 -10l30 174l150 -8l-31 -168h152zM637 793l-201 6l-45 -224h197z" />
    <glyph glyph-name="dollar" unicode="$" horiz-adv-x="1167" 
d="M1090 393q0 81 -24 148.5t-60 113t-92.5 86t-105.5 64.5t-116 51l53 379q34 -7 54 -14q-6 -25 -6 -52q0 -71 44 -120.5t109 -49.5t110.5 50t45.5 120q0 49 -22.5 89t-54 65.5t-82.5 47t-88.5 32.5t-92.5 24l16 121l-133 19l-18 -133q-99 0 -183 -25t-151 -74.5t-105 -132
t-38 -190.5q0 -141 98.5 -263.5t261.5 -168.5l-66 -408q-59 24 -138.5 89.5t-102.5 117.5q-152 -47 -178 -57q24 -74 81.5 -153.5t137 -140t153.5 -71.5l-24 -139l155 -23l27 154q84 0 160.5 15.5t145.5 50t119.5 85t80 126t29.5 167.5zM582 137l61 408q75 -34 112.5 -93
t37.5 -126q0 -25 -12.5 -55t-36 -61t-66.5 -51.5t-96 -21.5zM606 1253l-51 -340q-56 13 -83.5 67t-27.5 114q1 6 3.5 17t14.5 38.5t28.5 48.5t47 38t68.5 17z" />
    <glyph glyph-name="percent" unicode="%" horiz-adv-x="1499" 
d="M1397 336q0 -101 -89 -183.5t-192 -82.5q-109 0 -174 78t-65 188q0 61 46.5 130t115.5 116t130 47q228 0 228 -293zM1282 1319l-940 -1309q-4 3 -21 14.5t-33.5 23.5t-34 25t-28.5 24.5t-10 17.5q5 4 165 228.5t351 496.5t193 274q-17 -4 -54 -4q-39 0 -60.5 1t-54.5 9
t-57 23q-33 -121 -125.5 -210t-210.5 -89q-69 0 -120.5 25.5t-81 70t-44 99.5t-14.5 120q0 166 89 241t258 75q26 0 47.5 -3.5t40.5 -14t31 -17.5t29 -27.5t24 -30t26.5 -38t26.5 -39.5q31 -30 121.5 -52t150.5 -22q48 0 90.5 28.5t67 63t46 64t30.5 30.5zM518 1174
q0 50 -35.5 83t-85.5 33q-59 0 -101 -42t-42 -101q0 -58 31.5 -98.5t87.5 -40.5q53 0 99 56t46 110zM1255 336q0 51 -35 95t-85 44q-54 0 -91.5 -44.5t-37.5 -98.5t28.5 -90.5t81.5 -36.5q51 0 95 41t44 90z" />
    <glyph glyph-name="ampersand" unicode="&#x26;" horiz-adv-x="1318" 
d="M1042 1194q0 -91 -43.5 -144t-136.5 -53q-80 0 -120 35t-40 88q0 35 19 78q-12 25 -48.5 39t-84.5 14q-88 0 -148.5 -38t-60.5 -121q0 -103 57.5 -149t153.5 -46h674v-205h-228q41 -50 71 -117.5t47.5 -129t38.5 -121.5t58.5 -110.5t94.5 -80.5l-134 -170q-9 3 -23.5 10
t-54 31.5t-71 53t-61.5 75t-39 98.5q-106 -152 -207 -207t-279 -55q-115 0 -218 59t-165.5 161t-62.5 219q0 73 11.5 125t42.5 97t68.5 79.5t106.5 85.5q-74 54 -105.5 113.5t-31.5 150.5q0 185 133.5 280t368.5 95q113 0 208 -30.5t152 -86t57 -123.5zM862 492
q0 78 -47 137t-108 59h-140q-96 0 -150.5 -68t-54.5 -149q0 -41 6.5 -78t21.5 -72.5t38.5 -61.5t60 -42t82.5 -16q131 0 211 81.5t80 209.5z" />
    <glyph glyph-name="quotesingle" unicode="'" horiz-adv-x="468" 
d="M367 1528q0 -55 -9 -121.5t-19.5 -114t-28 -124t-25.5 -113.5h-107q-8 47 -29 145.5t-34 179t-13 146.5q0 62 37.5 96.5t100.5 34.5q53 0 90 -38t37 -91z" />
    <glyph glyph-name="parenleft" unicode="(" horiz-adv-x="512" 
d="M489 -47l-53 -59h-4q-89 89 -156 169.5t-128.5 180t-94.5 209t-33 223.5q0 130 28 248t84 222.5t127 196t169 187.5l43 -45q-59 -98 -100.5 -175.5t-83.5 -176t-64 -197.5t-22 -195q0 -81 18 -168.5t43 -160.5t67.5 -162.5t75.5 -149.5t84 -147z" />
    <glyph glyph-name="parenright" unicode=")" horiz-adv-x="512" 
d="M492 635q0 -54 -7.5 -105.5t-17 -93.5t-31 -88.5t-37.5 -79t-49 -76.5t-53 -69.5t-62 -70t-63.5 -66.5t-68.5 -69l-23 -23h-4l-53 59q34 58 82.5 136.5t72 117.5t53 98.5t42.5 106.5t22.5 112.5t9.5 143.5q0 110 -11 199t-27 157t-54 149t-72 142t-100 170l43 45
q205 -156 306.5 -389.5t101.5 -505.5z" />
    <glyph glyph-name="asterisk" unicode="*" horiz-adv-x="923" 
d="M821 1362q0 -48 -37 -79.5t-84 -31.5l-118 15q-37 0 -37 -25q5 -21 36.5 -41.5t65.5 -36t62 -48t28 -77.5q0 -41 -24.5 -65.5t-65.5 -24.5q-44 0 -73.5 25t-42 61t-20 72t-14.5 61t-18 25q-14 0 -14 -78q0 -21 1 -54t1 -38q-2 -58 -35.5 -94.5t-89.5 -36.5
q-47 0 -70.5 29.5t-23.5 78.5q0 71 35.5 114t105.5 75q2 2 7 11.5t5 10.5q0 21 -34 21l-127 -12q-58 0 -98 29.5t-40 84.5q0 54 40.5 80.5t95.5 26.5q24 0 53 -19.5t62 -49.5t44 -38h9q9 0 14.5 10.5t5.5 20.5q0 26 -21.5 76.5t-21.5 81.5q0 55 24 98t74 43q41 0 65.5 -36
t24.5 -79q0 -38 -23.5 -102t-23.5 -94v-9l13 -10l32 10q11 13 35 43.5t34 39t33 18.5t54 10q42 0 69 -25.5t27 -66.5z" />
    <glyph glyph-name="plus" unicode="+" horiz-adv-x="909" 
d="M862 635v-135l-336 -13v-395h-135q-3 60 -4.5 196t-5.5 208l-367 12v137l367 14v375l127 -14l14 -367z" />
    <glyph glyph-name="comma" unicode="," horiz-adv-x="598" 
d="M496 53q0 -90 -70 -222.5t-147 -166.5l-58 78q6 8 23.5 30t23 30t19 28t18 30.5t11.5 29.5t7.5 34t-0.5 35t-6 41q-60 -36 -108 -16.5t-77.5 71t-29.5 109.5q0 56 33.5 92.5t79 49.5t100.5 13q58 0 101.5 -45.5t61.5 -104t18 -116.5z" />
    <glyph glyph-name="hyphen" unicode="-" horiz-adv-x="991" 
d="M889 539h-793v166h793v-166z" />
    <glyph glyph-name="period" unicode="." horiz-adv-x="542" 
d="M440 137q-25 -77 -59.5 -110t-108.5 -33q-69 0 -119.5 46.5t-50.5 115.5q0 74 55 131t130 57q52 0 88 -33.5t50.5 -78.5t14.5 -95z" />
    <glyph glyph-name="slash" unicode="/" horiz-adv-x="999" 
d="M983 1573l-881 -1645l-86 52l883 1640z" />
    <glyph glyph-name="zero" unicode="0" 
d="M1331 696q0 -118 -22 -225.5t-69 -202t-115 -164t-166.5 -109.5t-217.5 -40q-96 0 -184 22t-172.5 76.5t-146 136.5t-99 211.5t-37.5 292.5q0 371 177.5 539t529.5 168q118 0 210.5 -40.5t150 -107t95 -159.5t52 -190.5t14.5 -207.5zM946 844q0 47 -11.5 97.5t-33.5 97.5
t-60.5 77.5t-86.5 30.5q-64 0 -113 -43t-76.5 -105.5t-44.5 -146t-22.5 -151t-5.5 -134.5q0 -50 12 -112.5t35 -126.5t66 -107t97 -43q39 0 72.5 17.5t57 44.5t42 70.5t30.5 83.5t20.5 97t12.5 97t6 98t2.5 85.5t0.5 72.5z" />
    <glyph glyph-name="one" unicode="1" 
d="M1229 4l-938 8v273l268 20v572q-27 -32 -97.5 -75.5t-117.5 -60.5l-113 228q52 20 88 38.5t82 55.5t77.5 84.5t59 124.5t40.5 176l399 -16v-1133l252 -18v-277z" />
    <glyph glyph-name="two" unicode="2" 
d="M1202 -18q-646 18 -969 18q-1 10 -4.5 33t-5.5 36.5t-4 36.5t-3 50.5t-1 60.5q0 23 6 68q49 38 69 53t73 58t80 68t75 70.5t74.5 78t61 79t52.5 85.5t31 84.5t13 88.5q0 37 -2 63.5t-10 60.5t-22 55t-41 36t-65 15q-98 0 -145 -107q34 -29 59 -67.5t25 -75.5
q0 -29 -10.5 -61t-32 -64t-62.5 -53t-94 -21q-99 0 -167 73.5t-68 166.5q0 80 40.5 162.5t108.5 150t166 110t205 42.5q85 0 163.5 -14.5t151.5 -47.5t126.5 -82t85.5 -122.5t32 -163.5q0 -97 -44 -198.5t-117.5 -188t-154 -157t-167.5 -126.5q47 2 139 2q52 0 140 -4
t150 -8l62 -4v-340z" />
    <glyph glyph-name="three" unicode="3" 
d="M1237 1059q0 -57 -14.5 -101.5t-46 -80.5t-68.5 -63t-96 -60v-6q117 -36 185.5 -138t68.5 -211q0 -103 -52.5 -190t-136 -141.5t-183 -84.5t-198.5 -30q-70 0 -143.5 15t-143 46.5t-124 74.5t-88 103.5t-33.5 129.5q0 98 76 157.5t163 59.5q74 0 116 -49t42 -121
q0 -36 -18.5 -68.5t-50.5 -48.5q26 -42 59 -57t90 -15q90 0 138 63t48 152q0 71 -28.5 124.5t-78.5 84.5t-111 46.5t-132 15.5q-35 0 -51 -2q-18 65 -18 116q0 27 6 53t12 39l6 13q57 -13 113 -13q72 0 132 17.5t102 60t42 103.5q0 87 -45.5 128.5t-120.5 41.5
q-81 0 -169 -45t-136 -111q-39 20 -88 76.5t-69 103.5q105 95 241 153t271 58q532 0 532 -399z" />
    <glyph glyph-name="four" unicode="4" 
d="M137 250l-37 254q337 283 346 979l451 -21q0 -149 -57 -327.5t-169.5 -351.5t-252.5 -277h278v84l269 358h137v-444h211v-252h-205v-252l-412 -23v273h-559z" />
    <glyph glyph-name="five" unicode="5" 
d="M1278 494q0 -241 -163 -391t-410 -150q-87 0 -163.5 12.5t-144 40.5t-115.5 70.5t-76 106t-28 143.5q0 59 17.5 104.5t41.5 69.5t55 39.5t53 19.5t40 4q73 0 129.5 -48t56.5 -116q0 -36 -15 -78t-44 -67q63 -66 166 -66q61 0 105 46.5t61.5 107t17.5 123.5q0 69 -30 118
t-84 75.5t-116.5 38.5t-139.5 12q-74 0 -162 -9l-23 29q81 665 88 696l76 5q84 4 185.5 6.5t169.5 3t192 1.5t176 1l14 -309h-223q-151 0 -268 -13l-27 -192h23q80 0 159.5 -19.5t150 -57.5t126 -90t90 -121t39.5 -146z" />
    <glyph glyph-name="six" unicode="6" 
d="M1268 485q-4 -148 -85.5 -270.5t-209.5 -190t-271 -67.5q-269 0 -426 184t-157 490q0 186 60 343t173.5 273.5t290.5 182t399 65.5q105 0 154 -8q27 -56 27 -127q0 -12 -3.5 -35.5t-7.5 -40.5l-4 -18q-39 2 -110 2q-329 0 -459 -287q68 29 172 29q225 0 341 -140.5
t116 -384.5zM864 496q0 342 -174 342q-32 0 -56 -15.5t-38.5 -45.5t-24 -62.5t-13.5 -79.5t-5.5 -82.5t-1.5 -83.5q0 -299 156 -299q149 0 157 326z" />
    <glyph glyph-name="seven" unicode="7" 
d="M1317 1419q0 -38 -2 -80.5t-5.5 -94.5t-4.5 -81q-147 -95 -252 -249.5t-105 -315.5q0 -60 18.5 -148.5t18.5 -150.5q0 -143 -74.5 -235.5t-205.5 -92.5q-68 0 -129 46t-94 111t-33 126q0 109 27 216t80 208.5t109.5 185t135.5 183.5h-363q-31 -122 -41 -168
q-53 -15 -106 -15q-38 0 -166 17q0 93 -3 203t-3 143q0 115 18 196q43 9 434 9q496 0 746 -13z" />
    <glyph glyph-name="eight" unicode="8" 
d="M1294 414q0 -138 -78.5 -243t-207 -158.5t-285.5 -53.5q-232 0 -374 133t-142 350q0 43 14.5 82.5t35.5 69t55 60.5t61 50t65 44q-65 44 -115.5 132t-50.5 167q0 84 33 159t94 132t156.5 90.5t212.5 33.5q210 0 344.5 -101t134.5 -237q0 -267 -207 -366
q254 -125 254 -344zM920 1094q0 27 -7 58t-21 62.5t-40 52.5t-59 21q-77 0 -113.5 -61.5t-36.5 -165.5q0 -34 6 -70t19 -73t39.5 -60.5t62.5 -23.5q40 0 70.5 26.5t47 68.5t24.5 84t8 81zM883 385q0 38 -7 77.5t-22 78.5t-44.5 63.5t-68.5 24.5q-35 0 -62 -28.5t-41 -72
t-21 -84.5t-7 -75q0 -232 131 -232q45 0 79 47t48.5 102t14.5 99z" />
    <glyph glyph-name="nine" unicode="9" 
d="M1286 870q0 -176 -59 -337t-164 -283.5t-261.5 -195t-338.5 -72.5q-35 0 -70 4.5t-53 9.5l-18 4q-21 70 -21 172q110 0 196 17t139.5 43t92 65t56.5 75t30 81q-94 -39 -197 -39q-132 0 -246.5 64t-183.5 180t-69 257q0 124 48.5 229t132 175.5t194.5 109.5t235 39
q122 0 223.5 -38.5t176 -111.5t116 -188t41.5 -260zM864 899q0 36 -0.5 57t-2.5 57t-5.5 58t-11 53t-18 50t-26.5 40.5t-37 33.5t-49.5 20t-62.5 8q-37 0 -66.5 -24.5t-46.5 -64.5t-25.5 -86t-8.5 -95q0 -87 20 -158.5t49 -112t58.5 -61.5t52.5 -21t37 1t35 5.5t34.5 14
t29 27.5t24 43.5t14.5 65t6 89.5z" />
    <glyph glyph-name="colon" unicode=":" horiz-adv-x="593" 
d="M492 836q0 -76 -44.5 -127.5t-119.5 -51.5q-86 0 -156 57.5t-70 141.5q0 56 56 111t114 55q115 0 167.5 -41.5t52.5 -144.5zM469 168q0 -52 -33.5 -110t-81.5 -58h-104q-58 28 -101 82.5t-43 114.5q0 73 51 119t126 46q80 0 133 -56.5t53 -137.5z" />
    <glyph glyph-name="semicolon" unicode=";" horiz-adv-x="616" 
d="M510 827q0 -65 -60.5 -123.5t-132.5 -58.5q-110 0 -153 57.5t-43 163.5q0 66 64.5 117t138.5 51q91 0 138.5 -60t47.5 -147zM514 92q0 -172 -76.5 -267t-244.5 -151l-87 103q12 5 47 14t62 20t57 32t47.5 59.5t18.5 93.5q-236 0 -236 199q0 75 56.5 120t132.5 45
q53 0 93.5 -18.5t64.5 -46t39 -65t20.5 -71t5.5 -67.5z" />
    <glyph glyph-name="less" unicode="&#x3c;" horiz-adv-x="776" 
d="M702 1036l-501 -452l440 -482l-104 -82l-521 562l590 561z" />
    <glyph glyph-name="equal" unicode="=" horiz-adv-x="937" 
d="M866 616l-811 2l-6 150h817v-152zM877 485l-23 -149h-809q6 104 8 149h824z" />
    <glyph glyph-name="greater" unicode="&#x3e;" horiz-adv-x="776" 
d="M725 582l-590 -562l-96 107l502 453l-441 481l105 82z" />
    <glyph glyph-name="question" unicode="?" horiz-adv-x="1122" 
d="M1020 1147q0 -76 -24.5 -133t-64 -91t-86.5 -60t-94.5 -47t-87 -44t-64 -58.5t-24.5 -84.5q0 -19 7 -38.5t23 -46.5t20 -36v-2q0 -14 -31.5 -21.5t-52.5 -7.5q-81 0 -122.5 53.5t-41.5 141.5q0 54 23 102t57.5 80t75 66.5t75 63t57.5 68t23 83.5q0 92 -58 137t-157 45
q-42 0 -75 -22.5t-46 -61.5q103 -32 103 -135q0 -58 -51 -99t-111 -41q-69 0 -130 56.5t-61 124.5q0 102 66 186t164.5 128t202.5 44q73 0 138 -9t130.5 -33.5t112 -63t75.5 -101t29 -143.5zM676 201q0 -95 -51.5 -148t-145.5 -53q-50 0 -109 36t-59 83q0 207 168 207
q42 0 84.5 -11t77.5 -40.5t35 -73.5z" />
    <glyph glyph-name="at" unicode="@" horiz-adv-x="1284" 
d="M1253 874q0 -60 -20 -130.5t-56 -137t-96.5 -111t-132.5 -44.5q-16 0 -30 2.5t-27.5 9.5t-22 11.5t-21.5 17.5l-18 18t-19.5 22t-18.5 21q-7 -9 -23.5 -30.5t-23 -29t-21 -23t-25 -21.5t-27.5 -14t-36 -10.5t-43 -2.5q-98 0 -150.5 62.5t-52.5 158.5q0 74 36.5 154
t103 137t141.5 57q45 0 91.5 -20.5t57.5 -57.5h2l8 11l15 84q90 0 117 -15l-52 -342q0 -20 25 -37.5t47 -17.5q34 0 60 30t38.5 75t18.5 84.5t6 70.5q0 96 -59 186.5t-155.5 146.5t-199.5 56q-122 0 -218.5 -47t-155.5 -127.5t-90 -182t-31 -216.5q0 -117 56.5 -222.5
t160 -172t229.5 -66.5q16 0 34.5 3.5t29.5 7t33.5 11t29.5 9.5l37 -121q-90 -33 -209 -33q-107 0 -196.5 31.5t-153 87t-108 131t-66 163t-21.5 183.5q0 127 43.5 249.5t122 221.5t200.5 160t267 61q144 0 274.5 -66.5t212.5 -183.5t82 -252zM776 750q0 122 -69 122
q-67 0 -130 -83t-63 -150q0 -40 30 -71t72 -31q47 0 85.5 37t56.5 84.5t18 91.5z" />
    <glyph glyph-name="A" unicode="A" horiz-adv-x="1386" 
d="M1321 -14q-44 -1 -163 -5t-185 -4h-55q-23 24 -60 136.5t-55 193.5l-422 -26q-15 -95 -55 -297q-162 20 -263 24q354 1322 418 1430q13 0 67.5 -2t74 -3t66.5 -3.5t74 -5t67 -6.5t75 -10t70 -13q34 -141 105 -442.5t126.5 -527t114.5 -439.5zM766 514l-143 623l-195 -637
q177 0 338 14z" />
    <glyph glyph-name="B" unicode="B" horiz-adv-x="1222" 
d="M1161 446q0 -446 -704 -446h-338q-27 351 -27 946q0 254 6 488q346 16 437 16q561 0 561 -369q0 -104 -51.5 -189.5t-133.5 -133.5q93 -36 171.5 -122t78.5 -190zM756 453q0 49 -27 85.5t-70.5 56t-89 29t-90.5 9.5v-422q52 0 99 12.5t88 39.5t65.5 75.5t24.5 114.5z
M729 1087q0 47 -17.5 78.5t-49.5 46.5t-66 21t-78 6h-31v-365h41q85 0 143 63.5t58 149.5z" />
    <glyph glyph-name="C" unicode="C" horiz-adv-x="1275" 
d="M1247 1182q0 -65 -23.5 -118.5t-60.5 -85t-78 -48.5t-79 -17q-75 0 -134 39t-59 107q0 28 8 49q-28 47 -82 47q-256 0 -256 -537q0 -146 79.5 -252t211.5 -106q85 0 188.5 45.5t178.5 100.5q10 -12 67 -105.5t60 -101.5q-50 -73 -135.5 -128.5t-171.5 -81.5t-148.5 -38
t-95.5 -12q-130 0 -242 44.5t-188 116.5t-130.5 163t-80 184.5t-25.5 181.5q0 174 61.5 328.5t166 264t247.5 173t301 63.5q76 0 137.5 -9t104.5 -24t75.5 -37t51.5 -45.5t31 -52t16 -54t4 -54.5z" />
    <glyph glyph-name="D" unicode="D" horiz-adv-x="1329" 
d="M1278 788q0 -237 -92 -419t-273 -287t-428 -105q-196 0 -350 23v1434q10 1 54 6t68.5 7t81.5 4.5t126 2.5q134 0 254.5 -26.5t222.5 -81.5t177 -133.5t117 -187t42 -237.5zM866 715q0 80 -14.5 149.5t-45.5 128.5t-87 93t-131 34h-60v-846q15 -2 35 -2q22 0 44 3
t53.5 14.5t58.5 29.5t55 52t47.5 79t32 113.5t12.5 151.5z" />
    <glyph glyph-name="E" unicode="E" horiz-adv-x="1005" 
d="M1014 133q-222 -170 -428 -170q-82 0 -156.5 14.5t-142.5 47t-117.5 81.5t-79 122.5t-29.5 164.5q0 202 179 350q-142 108 -142 258q0 113 49.5 202.5t132 143.5t183.5 82.5t211 28.5q58 0 131 -13t104 -42q-20 -153 -43 -201q-15 -1 -52.5 -1.5t-58.5 -1.5t-57 -4
t-58.5 -8.5t-52 -14.5t-47 -23t-34.5 -33t-25 -46t-8 -60q0 -38 11.5 -67.5t34.5 -48t49.5 -30.5t64.5 -18t70.5 -8t76.5 -2h58l8 -246h-137q-50 0 -85 -6t-69 -24t-51 -55.5t-17 -94.5q0 -76 54 -120t135 -44q39 0 79 11.5t89 32.5t76 29z" />
    <glyph glyph-name="F" unicode="F" horiz-adv-x="1003" 
d="M922 492q-115 -13 -285 -13h-143q0 -270 -7 -475q-36 -2 -131 -2q-49 0 -115 3.5t-107 6.5l-42 4q43 868 45 1430h2q164 0 797 -16v-281h-434q0 -34 -1.5 -126t-3 -168t-1.5 -71h411q15 -193 15 -292z" />
    <glyph glyph-name="G" unicode="G" horiz-adv-x="1290" 
d="M1214 23q-133 -27 -294 -27l-15 106q-90 -81 -174.5 -111t-206.5 -30q-140 0 -250 104.5t-166.5 267.5t-56.5 349q0 128 28.5 246t86.5 218t139 174t193 115.5t243 41.5q50 0 100.5 -6.5t113.5 -28.5t109.5 -57t79 -100t32.5 -150q0 -30 -5.5 -58.5t-19.5 -58.5
t-35 -52.5t-56.5 -36.5t-80.5 -14q-53 0 -91.5 13t-57.5 35.5t-27 45.5t-8 50q0 16 3 33.5t6 28t8.5 28t6.5 22.5q-54 35 -88 35q-68 0 -122.5 -31t-87.5 -79t-55.5 -112t-31 -125.5t-8.5 -123.5q0 -43 5.5 -99.5t20.5 -127t37 -128t61 -97t87 -39.5q76 0 139 46.5
t101 119.5v127h-193q0 16 -0.5 40t-1 47t-1 43.5t-1.5 34.5v13h534v-692z" />
    <glyph glyph-name="H" unicode="H" horiz-adv-x="1406" 
d="M1315 0h-354l-23 522q-426 0 -465 -2v-559l-381 19v1460h381q16 -378 16 -576l426 -16v584l400 -15v-1417z" />
    <glyph glyph-name="I" unicode="I" horiz-adv-x="800" 
d="M731 1430q2 -9 2 -37l-6 -164h-168v-383q0 -55 2 -82l17 -565h24q78 8 123 8v-201q-56 -10 -186 -10q-81 0 -249.5 5t-217.5 5q-2 19 -9 164h134v1081h-144v172q307 9 488 9q34 0 49 -2h141z" />
    <glyph glyph-name="J" unicode="J" horiz-adv-x="1112" 
d="M1090 1235l-142 -14q2 -39 2 -119q0 -81 -1.5 -145.5t-8 -161t-17.5 -172.5t-32 -167.5t-50 -160.5t-73.5 -138t-99.5 -113t-131 -71.5t-166 -27.5q-79 0 -139.5 19.5t-99 52.5t-62.5 83t-33.5 105.5t-9.5 124.5q0 63 22.5 116t56.5 85t72.5 49.5t73.5 17.5
q90 0 143.5 -44.5t53.5 -133.5q0 -40 -15 -68t-39 -41t-44 -18.5t-38 -5.5q2 -12 5 -32.5t4.5 -27.5t5.5 -19.5t8 -15.5t12.5 -8.5t20 -6.5t28.5 -1q178 0 178 645v408q-80 0 -200 20q1 6 6.5 55.5t11.5 92t10 49.5h687v-211z" />
    <glyph glyph-name="K" unicode="K" horiz-adv-x="1394" 
d="M1346 227l30 -184q-38 -19 -112 -31t-127 -12q-86 0 -150.5 22.5t-103 60t-65 86.5t-42 102.5t-29.5 107.5t-31.5 103t-43 86.5t-70 60t-106.5 22.5l-31 -665l-363 16v1450l387 -14v-553q61 0 103.5 33t68.5 85.5t49 116t54 127t74 116t119 85.5t180 33q95 0 162 -44.5
t67 -119.5q0 -29 -3.5 -55t-15 -56t-30 -51.5t-52.5 -36t-79 -14.5q-39 0 -64.5 12t-36 34.5t-14 38t-4.5 38.5q-37 -32 -58 -77t-31 -88.5t-23 -88t-45.5 -88t-86.5 -76.5q72 -26 126 -73t84.5 -100.5t53 -113t39 -113.5t35.5 -98t50 -70t75 -26q12 0 27 3t24 6z" />
    <glyph glyph-name="L" unicode="L" horiz-adv-x="1050" 
d="M989 330v-324q-78 -8 -119 -8q-376 0 -755 16q-17 27 -17 90q0 222 7.5 774t7.5 566q0 2 84 2q39 0 158 -8t132 -8v-156q0 -197 -12 -506.5t-12 -441.5l43 2q53 2 242 2h241z" />
    <glyph glyph-name="M" unicode="M" horiz-adv-x="1681" 
d="M1589 -6h-405q-2 35 -2.5 228.5t-4 365t-12.5 194.5l-340 -661q-33 -1 -106.5 -9t-114.5 -8l-231 730q-66 -448 -76 -832h-205l117 1432q70 2 202.5 -3.5t178.5 -5.5q9 0 17.5 -15t10.5 -26l203 -647l357 664h354z" />
    <glyph glyph-name="N" unicode="N" horiz-adv-x="1427" 
d="M1335 1407l-45 -1415h-387l-551 893v-879l-260 17v1165q0 143 10 239q62 -2 158 -2q164 0 246 2l532 -868v873q125 0 297 -25z" />
    <glyph glyph-name="O" unicode="O" horiz-adv-x="1454" 
d="M1403 774q0 -106 -27.5 -217.5t-83.5 -216t-131.5 -186.5t-180.5 -131.5t-222 -49.5q-180 0 -316.5 57t-221.5 162.5t-127 248.5t-42 321q0 133 40.5 246.5t112.5 196t170 140.5t213.5 86.5t243.5 28.5q101 0 192.5 -39.5t159.5 -107.5t118.5 -155.5t76 -186.5t25.5 -197
zM985 705q0 49 -6 109.5t-23.5 135t-43.5 134t-70.5 100.5t-100.5 41q-53 0 -96 -26.5t-69.5 -72t-45.5 -98.5t-28.5 -114.5t-13 -110t-3.5 -94.5q0 -59 5 -119t22 -135.5t44.5 -131.5t77 -94.5t114.5 -38.5q237 0 237 515z" />
    <glyph glyph-name="P" unicode="P" horiz-adv-x="1206" 
d="M1149 950q0 -112 -56.5 -212.5t-147 -169t-203.5 -108.5t-226 -40v-440q-129 -15 -227 -15q-86 0 -197 6q0 12 2 46.5t4.5 118.5t3.5 212q0 60 -4 522q0 217 17 557q137 25 479 25q156 0 280.5 -57.5t199.5 -173t75 -271.5zM793 936q0 129 -63 180t-191 51q-23 0 -35 -2
v-506q110 17 199.5 96t89.5 181z" />
    <glyph glyph-name="Q" unicode="Q" horiz-adv-x="1503" 
d="M1552 -199q0 -34 -42.5 -65.5t-93.5 -48.5t-85 -17q-58 0 -112 17.5t-94 46t-75 62.5t-62 68t-49 62.5t-40.5 46t-32.5 17.5q-25 0 -78 -13.5t-81 -13.5q-152 0 -276.5 50.5t-207 140.5t-127.5 214.5t-45 270.5q0 126 27.5 243t84.5 218t137 176t191.5 117.5t241.5 42.5
q344 0 512 -182t168 -513q0 -110 -28 -210.5t-68.5 -168t-80.5 -117.5t-69 -79t-30 -33q56 -11 95.5 -41.5t62.5 -66t48 -69.5t68 -56.5t107 -22.5q11 0 22.5 -28.5t11.5 -47.5zM987 754q0 48 -1 82t-5.5 88t-13.5 92.5t-26 82t-40.5 70.5t-60.5 45.5t-84 18.5
q-65 0 -117.5 -45t-82 -109t-49.5 -141.5t-27 -135.5t-7 -97q0 -25 3 -64t10.5 -97.5t23 -114t37 -105.5t57 -80.5t78.5 -30.5q71 0 127 39t88.5 97.5t53.5 135t28.5 142t7.5 127.5z" />
    <glyph glyph-name="R" unicode="R" horiz-adv-x="1314" 
d="M1298 51q-37 -50 -112.5 -71t-155.5 -21q-85 0 -149.5 32t-102.5 83t-67 112.5t-51 123t-45.5 112.5t-60 83t-85.5 32q-4 -91 -4 -334v-199l-373 -16v1454q31 1 204.5 7.5t240.5 6.5q92 0 174 -11t160.5 -39t134.5 -71t90 -111t34 -155q0 -117 -87.5 -235t-227.5 -156v-2
q75 -31 128.5 -92.5t80.5 -126t49.5 -125t50 -99t66.5 -38.5q46 0 82 16zM741 1028q0 100 -77.5 171t-180.5 71q0 -449 13 -500q61 0 119.5 42t92 102t33.5 114z" />
    <glyph glyph-name="S" unicode="S" horiz-adv-x="1126" 
d="M1069 432q0 -103 -49 -191t-128 -144.5t-175 -88t-193 -31.5q-132 0 -275.5 58.5t-211.5 154.5q99 144 164 203q52 -70 127.5 -108.5t148.5 -38.5q72 0 134.5 45.5t62.5 120.5q0 40 -31.5 71.5t-81.5 55t-111 48.5t-122 61.5t-111 84.5t-81.5 126.5t-31.5 178.5
q0 116 73 216t185 156t230 56q122 0 224.5 -34t167.5 -103t65 -160q0 -219 -193 -219q-75 0 -121.5 44.5t-46.5 107.5q0 61 64 100q-42 51 -123 51q-28 0 -57 -8t-57 -24.5t-46 -48t-18 -72.5q0 -49 21 -89t57 -68.5t82.5 -53.5t97.5 -48t102 -48t97.5 -58t82.5 -73.5
t57 -99t21 -130.5z" />
    <glyph glyph-name="T" unicode="T" horiz-adv-x="1263" 
d="M1251 1434l-6 -295l-393 -17l-39 -1122h-453v1112h-348v322h1239z" />
    <glyph glyph-name="U" unicode="U" horiz-adv-x="1282" 
d="M651 -23q-124 0 -226.5 53.5t-169 139.5t-112 198.5t-65 225.5t-19.5 225q0 110 6 324.5t7 302.5q79 -3 185.5 -3.5t173 -0.5t75.5 -2q-10 -262 -10 -334q0 -170 20 -514q3 -53 9 -91t21 -81.5t38.5 -71t64 -45.5t94.5 -18q61 0 108.5 44.5t71 103t27.5 118.5
q39 505 39 844v45q52 6 103 6q70 0 125 -6v-727q0 -111 -19 -214t-62 -199t-107 -167t-161.5 -113.5t-216.5 -42.5z" />
    <glyph glyph-name="V" unicode="V" horiz-adv-x="1429" 
d="M1417 1440q0 -52 -138 -399t-288 -683t-180 -364h-309l-490 1429q234 12 418 17q193 -629 342 -959l408 959h237z" />
    <glyph glyph-name="W" unicode="W" horiz-adv-x="1828" 
d="M1800 1434l-346 -1440h-225q-122 324 -258 770q-32 -127 -116 -394.5t-112 -371.5l-282 -12q-16 49 -128.5 414.5t-216.5 705t-104 338.5h416l240 -768l188 704q29 -2 105 -2l155 2l240 -805l205 867z" />
    <glyph glyph-name="X" unicode="X" horiz-adv-x="1519" 
d="M1497 1434l-543 -615l447 -778q-303 -27 -449 -29l-282 484l-404 -519l-223 62l506 657l-440 740l458 28l254 -460q264 319 391 456z" />
    <glyph glyph-name="Y" unicode="Y" horiz-adv-x="1374" 
d="M1356 1436l-475 -801v-643l-451 18l14 598l-428 830q158 8 236 8q120 0 219 -8q19 -43 110 -272.5t146 -334.5l342 590q170 15 248 15h39z" />
    <glyph glyph-name="Z" unicode="Z" horiz-adv-x="1226" 
d="M1202 1436l-4 -285l-610 -821h604v-330h-1147l14 276l615 865h-633v295h1161z" />
    <glyph glyph-name="bracketleft" unicode="[" horiz-adv-x="456" 
d="M432 1464l-250 13v-1465l226 -20v-119l-355 21v1685h375z" />
    <glyph glyph-name="backslash" unicode="\" horiz-adv-x="983" 
d="M975 -20l-86 -52l-881 1645l84 47z" />
    <glyph glyph-name="bracketright" unicode="]" horiz-adv-x="456" 
d="M432 -106l-379 -21v119l197 20v1465l-221 -13l4 121h399v-1691z" />
    <glyph glyph-name="asciicircum" unicode="^" horiz-adv-x="921" 
d="M819 1194l-76 -76l-272 195l-301 -176l-68 88l385 297z" />
    <glyph glyph-name="underscore" unicode="_" horiz-adv-x="1374" 
d="M1374 -133l-1368 -12v125h191q174 0 370 2t436.5 5.5t370.5 4.5v-125z" />
    <glyph glyph-name="grave" unicode="`" horiz-adv-x="608" 
d="M571 1104l-51 -80l-391 182q-38 19 -65 53t-27 72q0 57 36.5 83t88.5 26q16 0 50 -14.5t46 -26.5z" />
    <glyph glyph-name="a" unicode="a" horiz-adv-x="1081" 
d="M1075 47q0 -13 -86.5 -34t-114.5 -21q-51 0 -87 23.5t-82 70.5q-16 -11 -53 -38t-52.5 -36t-44.5 -24t-57.5 -20t-63.5 -5q-137 0 -240.5 83.5t-103.5 217.5q0 60 24.5 112t66.5 88.5t95 64.5t113.5 45t118.5 26t113 10q0 35 -0.5 56.5t-3.5 54.5t-8 54t-15 46t-24.5 39
t-36.5 23.5t-50 9.5q-57 0 -102 -30.5t-45 -74.5q24 -24 24 -75q0 -54 -41 -88.5t-96 -34.5q-56 0 -103.5 37t-47.5 84q0 69 27.5 125.5t72.5 93t104.5 61.5t121 36t124.5 11q295 0 394 -202q59 -120 63 -363v-59v-138q0 -15 9.5 -32t23.5 -17q45 5 51 6q1 -21 4.5 -58.5
t5.5 -68.5t2 -59zM645 201v88q0 26 -1.5 47.5t-4.5 48t-4 47.5h-19q-237 0 -237 -137q0 -60 46.5 -95.5t109.5 -35.5q12 0 27 4t26 8.5t29.5 12.5t27.5 12z" />
    <glyph glyph-name="b" unicode="b" horiz-adv-x="1161" 
d="M1110 524q0 -150 -66 -276.5t-189 -202.5t-277 -76q-96 0 -173 14.5t-130.5 38.5t-92.5 62t-62 78t-36.5 93t-18 101.5t-4.5 108.5v907q0 197 9 240h358v-682q131 100 258 100q94 0 176 -47t135 -121t83 -162.5t30 -175.5zM741 512q0 36 -8 85.5t-23.5 104t-45.5 92
t-68 37.5q-34 0 -61 -15.5t-44 -37.5t-29 -58.5t-18 -67t-9.5 -75t-4 -70t-0.5 -63.5q0 -47 1 -74t5 -70t14.5 -68.5t27 -51.5t44.5 -38.5t66 -12.5q47 0 80 43.5t47.5 111.5t20 123t5.5 105z" />
    <glyph glyph-name="c" unicode="c" horiz-adv-x="1050" 
d="M983 207q-200 -244 -469 -244q-130 0 -238 75.5t-166.5 194t-58.5 248.5q0 171 68.5 303t199.5 206.5t304 74.5q97 0 182 -28t143 -88.5t58 -141.5q0 -88 -55.5 -147.5t-137.5 -59.5q-74 0 -114 42t-40 114q0 12 -24.5 21t-52.5 9q-61 0 -105 -27.5t-66.5 -75.5t-32 -99
t-9.5 -111q0 -95 66.5 -159t160.5 -64q128 0 293 123q16 -24 31.5 -51.5t34 -62t28.5 -52.5z" />
    <glyph glyph-name="d" unicode="d" horiz-adv-x="1351" 
d="M1348 115q-5 -5 -15 -13t-39.5 -29t-58.5 -37t-68 -29t-73 -13q-72 0 -139.5 36t-106.5 107q-80 -98 -158.5 -149t-193.5 -51q-97 0 -173.5 32t-126.5 85.5t-83.5 128t-47.5 155.5t-14 172q0 70 18 145t55 146.5t87.5 128t121 91t150.5 34.5q73 0 125 -18t133 -66v706h70
l301 -18v-1192q0 -32 5.5 -64t18 -63t37.5 -50.5t58 -19.5q14 0 76 29zM750 510q0 30 -0.5 48t-3 53t-7.5 58.5t-16 52.5t-25.5 46.5t-38 30t-53.5 12.5q-42 0 -77.5 -22.5t-59 -57t-40 -77.5t-23.5 -84t-7 -76q0 -38 4 -77.5t15.5 -87t29.5 -83t50.5 -60t74.5 -24.5
q46 0 80 26t52 62.5t28.5 88t13.5 90.5t3 81z" />
    <glyph glyph-name="e" unicode="e" horiz-adv-x="1110" 
d="M1034 244q-77 -130 -231.5 -200.5t-319.5 -70.5q-121 0 -221.5 65.5t-155.5 168.5t-55 217q0 303 149 463t449 160q188 0 281.5 -105.5t93.5 -290.5q0 -70 -14 -119q-5 0 -285 -24.5t-322 -24.5q0 -147 47 -212.5t146 -65.5q82 0 160.5 36t130.5 99zM735 670
q0 192 -127 192q-73 0 -125.5 -52.5t-70.5 -127.5q90 -12 323 -12z" />
    <glyph glyph-name="f" unicode="f" horiz-adv-x="905" 
d="M1157 1374q0 -90 -55.5 -141t-132.5 -51q-59 0 -104.5 36t-45.5 80q0 96 74 127q-11 32 -42 51t-75 19q-55 0 -95.5 -44.5t-59.5 -112.5t-27 -127t-8 -109v-80q53 0 268 10v-209l-274 -12q0 -545 -15 -815l-346 16v799h-192v199l206 10q8 87 19.5 156t32.5 139.5
t50 123.5t72 100t99 77t131.5 47.5t167.5 17.5q167 0 259.5 -88t92.5 -219z" />
    <glyph glyph-name="g" unicode="g" horiz-adv-x="1318" 
d="M1223 412q0 -115 -6.5 -210t-25 -199t-50 -184t-84 -154.5t-123 -123t-171.5 -77.5t-226 -29q-102 0 -189 27t-157.5 91t-100.5 158q23 21 54.5 46.5t72 56t51.5 39.5h4q40 -80 103 -134.5t141 -54.5q90 0 153.5 30t97 85t48 120.5t14.5 149.5q-103 -84 -256 -84
q-104 0 -187.5 29t-140.5 81t-95.5 125t-56 158.5t-17.5 184.5q0 227 133 371.5t358 144.5q35 0 66.5 -5t52.5 -11.5t46 -19t36.5 -19.5t34 -23t28.5 -20l29 98q148 -12 187 -12q97 0 153 6q4 -38 13.5 -272t9.5 -369zM836 260l6 518q0 40 -29 61t-70 21q-64 0 -114.5 -34
t-80 -87.5t-44.5 -113.5t-15 -119q0 -155 56 -245.5t155 -90.5q75 0 136 90z" />
    <glyph glyph-name="h" unicode="h" horiz-adv-x="1323" 
d="M1221 0h-387q0 3 -1.5 65.5t-3.5 109.5t-5 125.5t-7 137t-9.5 118t-13 96t-16.5 44.5q-41 43 -88 43q-48 0 -85.5 -26t-61.5 -66.5t-41 -100t-25 -116t-13 -126.5t-5.5 -119.5t-0.5 -106t-1 -76.5l-326 16q-20 91 -29.5 412.5t-9.5 546.5q0 64 6 598q61 16 184.5 20.5
t155.5 8.5q8 -508 8 -826q59 118 177 200.5t245 82.5q95 0 191.5 -93.5t107.5 -189.5q13 -115 22 -242t18 -293t14 -243z" />
    <glyph glyph-name="i" unicode="i" horiz-adv-x="620" 
d="M530 1442q0 -96 -69.5 -169t-163.5 -73q-85 0 -146 58.5t-61 144.5q0 96 72 165.5t168 69.5q85 0 142.5 -55.5t57.5 -140.5zM494 1012q0 -209 -9.5 -586.5t-27.5 -421.5l-365 12q0 370 21 996q105 20 233 20q77 0 148 -20z" />
    <glyph glyph-name="j" unicode="j" horiz-adv-x="694" 
d="M590 1436q0 -111 -75.5 -188t-188.5 -77q-80 0 -139.5 79.5t-59.5 156.5q0 83 66.5 155t156.5 72q85 0 162.5 -59t77.5 -139zM559 1012q-2 -95 -2.5 -297.5t-2 -328t-15.5 -298t-41 -309.5q-16 -81 -72.5 -148t-133 -108t-162 -63.5t-165.5 -22.5q-91 0 -179.5 36.5
t-149 108t-60.5 160.5q0 87 44.5 142t109.5 55q89 0 128.5 -35t39.5 -74q0 -35 -15 -74.5t-41 -64.5q40 -62 131 -62q67 0 110.5 49.5t62 130t18.5 191.5v1010q88 14 209 14q95 0 186 -12z" />
    <glyph glyph-name="k" unicode="k" horiz-adv-x="1349" 
d="M1323 4q-11 -1 -67.5 -7t-80.5 -8t-74.5 -6t-100 -5.5t-107.5 -2.5l-381 441v-418q-122 -14 -233 -14q-81 0 -177 8v1599q165 0 404 -18v-977q43 59 162 228t168 231h391q-31 -38 -121.5 -150.5t-170 -207.5t-140.5 -160z" />
    <glyph glyph-name="l" unicode="l" horiz-adv-x="798" 
d="M766 29q-136 -58 -262 -58q-201 0 -313.5 128t-112.5 331v1106l434 86q-1 -76 -6.5 -384.5t-5.5 -426.5q0 -426 39 -510q21 -44 77.5 -67t116.5 -23q23 0 33 2v-184z" />
    <glyph glyph-name="m" unicode="m" horiz-adv-x="1861" 
d="M1759 35q-108 -27 -332 -27v217q0 465 -110 465q-59 0 -103 -40.5t-68 -99.5t-38.5 -142.5t-18.5 -152t-4 -144.5q0 -82 2 -111h-313v401q0 291 -92 291q-65 0 -116 -87t-77.5 -209.5t-39.5 -227.5t-13 -168h-174q-66 0 -133 6q-4 150 -8.5 320t-10 376t-8.5 320
q72 2 179 2q138 0 204 -12l-6 -176q195 249 352 249q150 0 252 -219q62 92 162 147.5t209 55.5q89 0 161 -62.5t108 -149.5t36 -173v-649z" />
    <glyph glyph-name="n" unicode="n" horiz-adv-x="1378" 
d="M1276 16q-44 -10 -105 -10q-129 0 -262 10q-3 246 -16 486q-2 31 -6.5 58.5t-15.5 57.5t-27 51.5t-42 35.5t-59 14q-61 0 -124.5 -43.5t-92.5 -97.5v-576q-201 0 -393 10q0 194 -15.5 525.5t-15.5 490.5q250 0 396 8v-215q81 110 189 176t237 66q130 0 225 -100t100 -224
z" />
    <glyph glyph-name="o" unicode="o" horiz-adv-x="1239" 
d="M1188 510q0 -123 -49.5 -227.5t-133.5 -173.5t-194 -107.5t-231 -38.5q-134 0 -255.5 64.5t-197.5 178t-76 245.5q0 120 47.5 230.5t127.5 191t191.5 128.5t233.5 48q258 0 397.5 -141.5t139.5 -397.5zM799 451q0 31 -1.5 59.5t-5.5 75.5t-15 84t-27.5 73t-44.5 56
t-64 20q-50 0 -93.5 -38.5t-70.5 -95t-42 -114.5t-15 -102q0 -83 17.5 -151.5t57.5 -115t97 -46.5q61 0 110.5 50t73 116.5t23.5 128.5z" />
    <glyph glyph-name="p" unicode="p" horiz-adv-x="1181" 
d="M1130 578q0 -86 -18.5 -169t-57 -158.5t-93.5 -133t-134 -91.5t-172 -34q-142 0 -219 88h-8q0 -397 -14 -574q-142 0 -344 27v1520h372l-6 -142q158 154 312 154q93 0 168.5 -45.5t120.5 -118t69 -156t24 -167.5zM778 514q0 37 -5.5 81t-19 99.5t-44 92t-74.5 36.5
q-61 0 -106.5 -27t-70.5 -72.5t-36.5 -96.5t-11.5 -109q0 -315 182 -315q50 0 88 32.5t58.5 82.5t30 100t9.5 96z" />
    <glyph glyph-name="q" unicode="q" horiz-adv-x="1343" 
d="M1339 -410q-57 -43 -262 -43q-58 0 -105 21.5t-75.5 53t-49.5 75.5t-30 80.5t-14 75.5l-23 213q-144 -101 -295 -101q-175 0 -291 133.5t-116 354.5q0 113 31 217.5t90.5 189.5t155.5 136t216 51q79 0 147 -43.5t118 -106.5l155 141h170v-970q0 -155 48.5 -227t117.5 -74
q16 -49 16 -99q0 -63 -4 -78zM776 543q0 106 -47 178t-108 72q-72 0 -121.5 -40.5t-69.5 -99t-20 -129.5q0 -145 52.5 -213.5t127.5 -68.5q51 0 89 30.5t58 78.5t29.5 96.5t9.5 95.5z" />
    <glyph glyph-name="r" unicode="r" horiz-adv-x="1042" 
d="M1042 784q0 -96 -50 -152.5t-134 -56.5q-74 0 -115 42.5t-41 93.5q0 44 9 59q-32 14 -66 14q-47 0 -87.5 -34.5t-65 -84.5t-38.5 -100t-14 -88q0 -40 1.5 -157.5t3 -219t1.5 -102.5h-344v1026h312l6 -182q60 87 155.5 142.5t194.5 55.5q121 0 196.5 -69.5t75.5 -186.5z
" />
    <glyph glyph-name="s" unicode="s" horiz-adv-x="960" 
d="M516 1067q108 0 184.5 -20t116.5 -56t57 -76t17 -88q0 -78 -49 -126t-115 -48q-47 0 -91 39t-44 90q0 44 35 80q-34 31 -84 31q-45 0 -78 -25.5t-33 -66.5q0 -36 23 -68t60 -57.5t81.5 -51t89 -54.5t81.5 -62.5t60 -80t23 -101.5q0 -79 -26.5 -140.5t-70 -99.5
t-104.5 -62.5t-123.5 -34t-134.5 -9.5q-107 0 -203.5 62.5t-144.5 137.5l119 125q48 -40 129.5 -87.5t122.5 -47.5q56 0 86 17t30 69q0 20 -21.5 40.5t-56.5 40t-76.5 42.5t-83.5 53t-77 66t-56.5 88t-21.5 112q0 80 37 150t95 115.5t122.5 72.5t124.5 31z" />
    <glyph glyph-name="t" unicode="t" horiz-adv-x="892" 
d="M852 1020q-3 -19 -8 -172l-262 10v-598q0 -65 96 -65q60 0 115 18l32 -184q-135 -64 -264 -64q-71 0 -143.5 30.5t-125 93t-52.5 140.5v623l-185 10v158l178 6v139l355 150l-13 -285z" />
    <glyph glyph-name="u" unicode="u" horiz-adv-x="1323" 
d="M1221 586l-9 -602h-344l-8 190q-64 -85 -183.5 -139.5t-213.5 -54.5q-159 0 -237 64t-101 214q-8 51 -15.5 297t-7.5 354v121h392q-7 -161 -7 -313q0 -242 28.5 -355.5t102.5 -113.5q47 0 84 24t60.5 68.5t39.5 97.5t24 121.5t11 128t3 129.5q0 52 -2 126t-2 91h372
q13 -215 13 -448z" />
    <glyph glyph-name="v" unicode="v" horiz-adv-x="1140" 
d="M1155 1014l-479 -1037h-268l-422 1020l407 27l201 -651l293 641h268z" />
    <glyph glyph-name="w" unicode="w" horiz-adv-x="1787" 
d="M2281 1356h-6v6h6v-6zM1772 1008q-21 -92 -207 -498t-254 -516q-19 -4 -60 -4q-83 0 -207 8l-159 532q-37 -100 -116.5 -286t-111.5 -267q-32 -8 -77 -8q-3 0 -150 6l-416 1039h392q21 -53 42.5 -109.5t46 -128t37.5 -109t42.5 -126t35.5 -107.5l207 590l293 -12
l172 -631q12 27 113.5 295t138.5 346z" />
    <glyph glyph-name="x" unicode="x" horiz-adv-x="1099" 
d="M1051 995l-299 -430l303 -528q-19 -3 -67.5 -11t-76 -12t-71.5 -8t-84 -4q-37 0 -56 2l-178 303q-37 -42 -95.5 -118.5t-98.5 -132.5l-39 -56l-248 20l362 463l-315 541l348 16l176 -286l219 290z" />
    <glyph glyph-name="y" unicode="y" horiz-adv-x="1292" 
d="M1286 1032l-530 -1276q-48 -116 -144 -176.5t-227 -60.5q-68 0 -154 20.5t-137 63.5q0 35 11 104.5t20 95.5q112 -47 184 -47q102 0 152 53t84 179q-64 120 -185 375t-210 450l-89 195l437 24l260 -590l211 592h129z" />
    <glyph glyph-name="z" unicode="z" horiz-adv-x="1040" 
d="M981 1034l-23 -258l-514 -581h512l-12 -215h-872l-17 245l539 594h-514l10 215h891z" />
    <glyph glyph-name="braceleft" unicode="{" horiz-adv-x="854" 
d="M731 -174h-219q-47 0 -85 24t-62.5 60.5t-42.5 90.5t-27 102.5t-14 109t-6 96.5t-1 78q0 52 -6.5 92.5t-23.5 79.5t-53 61.5t-89 24.5v164q63 5 105.5 33t64.5 70.5t35 96.5t23 112.5t22 116.5t38.5 110.5t66.5 92.5t111.5 63.5t168.5 23.5l4 -94q-66 0 -109.5 -29.5
t-62 -74t-27.5 -107t-8.5 -119t-3 -119t-12.5 -98.5q-37 -145 -206 -187q-1 0 -25 -6q120 -77 180.5 -168t60.5 -211q0 -37 1 -71t7 -92.5t17 -100.5t32.5 -75t51.5 -35l94 -9v-106z" />
    <glyph glyph-name="bar" unicode="|" horiz-adv-x="411" 
d="M268 -72l-125 -4v1587l125 5v-1588z" />
    <glyph glyph-name="braceright" unicode="}" horiz-adv-x="813" 
d="M711 645q-53 -2 -89 -21.5t-53 -54.5t-23.5 -72.5t-6.5 -88.5q0 -541 -217 -562l-220 -20v106l115 35q109 34 109 348q0 60 2 95t10 80.5t24.5 76.5t47 64.5t75.5 62.5q-40 12 -90.5 80.5t-58.5 112.5q-8 41 -11.5 118t-8 141t-18 129t-49.5 107.5t-95 51.5l4 94
q106 0 180.5 -24.5t112.5 -65.5t58 -95t23.5 -113.5t3.5 -120t4 -116t18 -99.5t52 -72.5t101 -33.5v-143z" />
    <glyph glyph-name="asciitilde" unicode="~" horiz-adv-x="1208" 
d="M1106 1307q-23 -68 -131.5 -163t-173.5 -95q-54 0 -120 30.5t-116.5 66.5t-104 66.5t-85.5 30.5q-83 0 -178 -129l-95 96q29 40 47.5 64t54.5 64t64.5 63t66 41t71.5 18q50 0 107.5 -29.5t99.5 -64.5t87 -64.5t74 -29.5q90 0 139.5 22.5t114.5 85.5z" />
    <glyph glyph-name="afii10017" unicode="&#x410;" horiz-adv-x="1415" 
d="M1386 27l-421 -27l-101 326h-477l-147 -342l-215 16l514 1442l376 33zM799 551l-174 565q-20 -25 -110.5 -288.5t-88.5 -276.5h373z" />
    <glyph glyph-name="afii10018" unicode="&#x411;" horiz-adv-x="1183" 
d="M1126 543q0 -109 -50.5 -209t-131.5 -170t-185.5 -112t-211.5 -42h-455v729q0 255 8 695h938l11 -224h-547l-10 -258h114q83 0 155.5 -12t141 -41.5t117 -75t77.5 -117t29 -163.5zM782 502q0 73 -69.5 125.5t-159.5 52.5h-84l-23 -449q336 0 336 271z" />
    <glyph glyph-name="afii10019" unicode="&#x412;" horiz-adv-x="1263" 
d="M1202 408q0 -55 -24.5 -112t-61 -98.5t-70 -71t-59.5 -42.5q-144 -76 -518 -76q-46 0 -132.5 7t-150.5 13l-63 7q-23 937 -31 1395q170 18 342 18q68 0 122 -2.5t126.5 -11.5t127 -24.5t112 -45t94.5 -69.5t60.5 -100.5t23.5 -135.5q0 -145 -170 -283
q147 -40 209.5 -130.5t62.5 -237.5zM745 1014q0 91 -60.5 140.5t-154.5 49.5h-45v-65q0 -53 7 -151.5t8 -125.5q57 0 110 14t94 50t41 88zM778 424q0 93 -81.5 149t-192.5 56q-12 -84 -12 -412q47 0 95.5 12.5t92 36.5t71 65t27.5 93z" />
    <glyph glyph-name="afii10020" unicode="&#x413;" horiz-adv-x="1030" 
d="M999 1124l-505 -2v-1122h-402v1425h897z" />
    <glyph glyph-name="afii10021" unicode="&#x414;" horiz-adv-x="1832" 
d="M1792 27l-4 -412h-318l-94 385h-889l-53 -381h-328v657h168q55 0 101.5 52t77 133t54 190.5t37 213t22 213.5t11 178.5t3.5 121.5q494 8 741 8l254 -4q-8 -738 -23 -1103q58 2 234 2q6 -126 6 -254zM1110 1110h-281q-65 -622 -233 -844q78 -2 235 -2q158 0 238 2z" />
    <glyph glyph-name="afii10022" unicode="&#x415;" horiz-adv-x="1118" 
d="M1094 172q-121 -107 -242 -139.5t-309 -32.5q-103 0 -207.5 59.5t-173 158t-68.5 202.5q0 118 45.5 199.5t143.5 152.5q-148 118 -148 277q0 111 49 194.5t131.5 130.5t177 69.5t199.5 22.5q78 0 201.5 -52.5t175.5 -108.5l-127 -140q-129 68 -244 68q-87 0 -161 -57
t-74 -142q0 -34 22.5 -58.5t53 -37t78.5 -20.5t82 -10t81.5 -3t59.5 -2l-11 -215q-55 0 -114 -10t-120.5 -32t-100.5 -66t-39 -103q0 -113 73 -165t191 -52q135 0 268 57z" />
    <glyph glyph-name="afii10024" unicode="&#x416;" horiz-adv-x="2127" 
d="M2009 12q-303 -4 -403 -12q-119 548 -371 631v-631h-385v664q-80 -30 -160.5 -141.5t-135.5 -252t-75 -270.5q-243 2 -364 2q0 105 61 271t162.5 321t200.5 211q-14 31 -42 122.5t-60 155.5t-81 97q-16 -25 -28 -38.5t-40 -27.5t-65 -14q-68 0 -115 62t-47 132
q0 46 19 79t52 51t71.5 26t83.5 8q78 0 144 -32t111.5 -83t84 -113t67 -123.5t53 -112.5t50 -83t51.5 -32v563h422q-8 -455 -8 -545q27 12 55.5 49.5t55.5 87t58 106.5t68.5 111.5t80.5 99.5t101 72t123 27q219 0 219 -188q0 -75 -46 -132t-119 -57q-76 0 -138 62
q-41 -24 -118 -150.5t-97 -150.5q100 -52 181.5 -138.5t141 -201t101.5 -227.5t80 -255z" />
    <glyph glyph-name="afii10025" unicode="&#x417;" horiz-adv-x="1187" 
d="M1106 391q0 -106 -44.5 -191.5t-121 -140t-175.5 -83.5t-210 -29q-170 0 -286.5 57t-166.5 148l123 141h2q98 -98 232 -98q85 0 151 57.5t66 142.5q0 39 -9.5 70.5t-25 52.5t-40.5 36t-49.5 23.5t-59 13t-62.5 6t-65 1.5q-19 0 -101 -2v229h105q64 0 119 11.5t106 37.5
t81 77t30 122q0 73 -48.5 120.5t-121.5 47.5q-91 0 -113 -24q16 -19 16 -60q0 -79 -50 -130.5t-128 -51.5q-89 0 -146 67t-57 158q0 80 64.5 142.5t169.5 95t229 32.5q89 0 167 -11t155 -40t131 -75t87.5 -120.5t33.5 -170.5q0 -108 -46 -184t-147 -158q88 -57 146.5 -140
t58.5 -180z" />
    <glyph glyph-name="afii10026" unicode="&#x418;" horiz-adv-x="1572" 
d="M1481 0h-422v899q-445 -795 -500 -899l-467 41v1024q0 45 1.5 134.5t3 160.5t1.5 72h418v-824q32 55 145.5 252t226.5 390t113 188l480 -21v-1417z" />
    <glyph glyph-name="afii10027" unicode="&#x419;" horiz-adv-x="1411" 
d="M1237 1745q-104 -99 -244.5 -162t-275.5 -63q-55 0 -104 5.5t-84 12t-73 23.5t-59 26.5t-56 37.5t-48.5 39t-52 47t-52.5 48l224 178q132 -129 293 -129q172 0 360 144zM1319 23l-371 -15v856l-489 -850l-367 21v1395h381v-764l469 731l377 30v-1404z" />
    <glyph glyph-name="afii10028" unicode="&#x41a;" horiz-adv-x="1419" 
d="M1358 1284q0 -79 -60 -142t-147 -63q-33 0 -61.5 12.5t-41.5 25.5l-12 13q0 -73 -20.5 -141.5t-70.5 -132t-124 -98.5v-6q74 -24 132.5 -65.5t94 -88t63 -97t47 -96.5t39 -82.5t46 -58.5t60.5 -22q47 0 71 8l35 -178q-35 -32 -101.5 -55t-115.5 -30l-49 -7
q-75 0 -134.5 23t-99.5 61.5t-71.5 89t-54 105.5t-44 110.5t-45 106t-51.5 89t-70 61.5t-96 23v-649h-385v1460l416 -20q-1 2 -1 -42.5v-117t-0.5 -151t-1 -157.5t-1.5 -124q72 0 122.5 34t80 88t54 119.5t54.5 131t71.5 119.5t115 88t174.5 34q84 0 133 -54.5t49 -123.5z
" />
    <glyph glyph-name="afii10029" unicode="&#x41b;" horiz-adv-x="1826" 
d="M1743 -8q-33 -2 -66 -2q-12 0 -42.5 0.5t-109 1.5t-192.5 2l-45 1128h-268q-9 -118 -27 -243t-49 -267t-82 -269t-114 -206q-75 -92 -169 -129t-223 -37q-87 0 -154.5 24t-105.5 64t-57 86t-19 95q0 96 59 165.5t142 69.5q75 0 134 -53t59 -127v-10q53 33 95.5 99
t69.5 140.5t46.5 179.5t29 189t14.5 197.5t6 177t1 153.5q86 9 268 15t313 6h56q264 0 430 -2v-1448z" />
    <glyph glyph-name="afii10030" unicode="&#x41c;" horiz-adv-x="1984" 
d="M1892 879q0 -562 -22 -873q-221 0 -422 14v926l-410 -903h-213q-63 153 -173.5 498.5t-164.5 482.5l-84 -1024h-311l133 1446l516 -25q205 -454 299 -723l404 770q63 -2 171 -8t185 -11l76 -5q16 -22 16 -565z" />
    <glyph glyph-name="afii10031" unicode="&#x41d;" horiz-adv-x="1495" 
d="M1403 1405l-62 -1440l-434 17l25 571l-393 -16l-52 -541l-395 24v1446l471 -22v-549h395l25 532z" />
    <glyph glyph-name="afii10032" unicode="&#x41e;" horiz-adv-x="1427" 
d="M1376 768q0 -121 -24 -234.5t-76.5 -216.5t-128.5 -179.5t-186.5 -121.5t-243.5 -45q-340 0 -503 169t-163 517q0 194 41.5 339t129.5 249.5t231.5 157.5t341.5 53q142 0 255 -54.5t183 -149.5t106.5 -218t36.5 -266zM946 729q0 46 -5 101t-20 125t-38.5 126t-64.5 94.5
t-93 38.5q-44 0 -79.5 -22.5t-58.5 -57t-40.5 -84.5t-26.5 -97t-14 -103t-6.5 -92.5t-1.5 -75.5q0 -51 7 -120.5t24 -157t55 -146.5t90 -59q63 0 113.5 40t79 99t47.5 135t25.5 138.5t6.5 117.5z" />
    <glyph glyph-name="afii10033" unicode="&#x41f;" horiz-adv-x="1492" 
d="M1401 1434l-12 -1409l-461 -19v1106h-400v-1112h-436v1434h1309z" />
    <glyph glyph-name="afii10034" unicode="&#x420;" horiz-adv-x="1273" 
d="M1227 899q0 -153 -88.5 -280.5t-229 -197t-297.5 -69.5q-63 0 -118 13v-365h-392v1419q136 41 414 41q120 0 221.5 -17t193.5 -58t156.5 -104t102 -160.5t37.5 -221.5zM811 901q0 147 -72 219t-227 72q-2 -90 -13 -283t-12 -297q148 0 236 73.5t88 215.5z" />
    <glyph glyph-name="afii10035" unicode="&#x421;" horiz-adv-x="1310" 
d="M1266 199q-99 -93 -255.5 -154t-295.5 -61q-145 0 -268.5 47.5t-210.5 133t-136 208.5t-49 268q0 359 203.5 566.5t558.5 207.5q67 0 135.5 -15t133 -46t105 -87.5t40.5 -129.5q0 -88 -76 -152.5t-166 -64.5q-84 0 -149.5 60.5t-79.5 145.5q-92 -30 -159 -106.5
t-97.5 -169t-30.5 -191.5q0 -174 101.5 -263t277.5 -89q154 0 307 62z" />
    <glyph glyph-name="afii10036" unicode="&#x422;" horiz-adv-x="1263" 
d="M1251 1434l-6 -295l-393 -17l-39 -1122h-453v1112h-348v322h1239z" />
    <glyph glyph-name="afii10037" unicode="&#x423;" horiz-adv-x="1413" 
d="M1415 1442q-211 -621 -409 -970q-289 -511 -562 -511q-142 0 -231.5 68.5t-89.5 208.5q0 102 69.5 179t172.5 77q48 0 87.5 -23t62.5 -59t35.5 -75t12.5 -75q57 40 84 80l-565 1083l416 23l348 -715h6l283 692z" />
    <glyph glyph-name="afii10038" unicode="&#x424;" horiz-adv-x="1509" 
d="M1438 793q0 -85 -26 -159.5t-70 -131.5t-106.5 -104.5t-131.5 -80.5t-148 -57q0 -10 1 -66t1 -92q0 -120 -8 -141q-184 -6 -272 -6q-96 0 -164 6v268q-59 19 -112.5 42.5t-117 66t-109 93t-76.5 124.5t-31 160q0 449 438 571v236h121q184 0 276 -2l15 -203
q112 -14 205 -53.5t164 -103.5t111 -158t40 -209zM1217 797q0 125 -83.5 215t-207.5 90q-2 -4 -2 -17l32 -596q87 21 174 121t87 187zM508 662v231q0 3 -6 168q-58 -15 -101.5 -54t-67 -90t-34 -102t-10.5 -102q0 -83 66.5 -172.5t146.5 -89.5q6 207 6 211z" />
    <glyph glyph-name="afii10039" unicode="&#x425;" horiz-adv-x="1568" 
d="M1516 33l-521 -31l-286 469l-365 -498l-330 15l502 690l-457 739l498 39l299 -485l346 463l295 -50l-483 -639z" />
    <glyph glyph-name="afii10040" unicode="&#x426;" horiz-adv-x="1556" 
d="M1577 317l-27 -751q-49 -6 -151 -6q-154 0 -250 14q8 167 8 309v109l-6 6q-185 -18 -498 -18h-180q-238 0 -381 26v1403q161 23 316 23h73q-20 -797 -20 -900v-231l8 -4q47 1 151.5 2.5t183 4t150.5 7.5l7 6q3 454 47 1127h389q8 -140 8 -273q0 -125 -2 -267t-5.5 -315
t-4.5 -267q39 -5 184 -5z" />
    <glyph glyph-name="afii10041" unicode="&#x427;" horiz-adv-x="1339" 
d="M1247 -2l-405 8q-8 207 -8 371q0 80 2 110q-131 -137 -338 -137q-66 0 -120 11.5t-94.5 29.5t-72 49t-52.5 61.5t-36 77t-22.5 84.5t-12 94.5t-5.5 97t-1 101.5q0 107 7.5 257.5t12.5 201.5q61 0 152 -5t151 -10l60 -5q0 -78 0.5 -155t1 -132t1 -98t1 -67t0.5 -25
q1 -37 4 -64t12 -62.5t23.5 -58.5t41 -39t62.5 -16q72 0 121.5 40t73 112t32.5 145t9 166q0 57 -4 146t-4 114h69q46 0 129.5 -3.5t143.5 -7.5l61 -4q4 -145 4 -206q-2 -131 -2 -482z" />
    <glyph glyph-name="afii10042" unicode="&#x428;" horiz-adv-x="1820" 
d="M1729 612q0 -383 -25 -614q-111 -6 -113 -6q-909 0 -1499 12v1403q132 6 397 23v-1127h244q3 578 29 1131h274v-1135l295 -10v1138q248 -8 379 -14q19 -427 19 -557v-244z" />
    <glyph glyph-name="afii10043" unicode="&#x429;" horiz-adv-x="1925" 
d="M1851 311l-14 -772h-373v467q-98 -1 -388 -6.5t-431 -5.5q-308 0 -553 22v1434l402 -16v-1117h213l63 1106h260v-88q0 -550 -24 -1018h272v664q0 301 18 442h367v-1106z" />
    <glyph glyph-name="afii10044" unicode="&#x42a;" horiz-adv-x="1394" 
d="M1346 477v-20q-21 -463 -762 -463q-43 0 -147 5t-124 9v1188q-6 2 -114 2q-170 0 -172 -2q-7 96 -7 168v70h248q70 0 188 -5t200 -11l83 -5q-14 -291 -14 -434q91 -4 178 -25.5t168 -63t141.5 -98.5t97 -138.5t36.5 -176.5zM956 481q0 140 -64.5 197t-213.5 57v-336
q0 -85 6 -147h14q130 0 194 53t64 176z" />
    <glyph glyph-name="afii10045" unicode="&#x42b;" horiz-adv-x="1710" 
d="M1618 1434l-25 -1448l-387 14v1434h412zM1077 551q0 -148 -76 -275.5t-203 -201.5t-272 -74q-136 0 -244.5 8t-149.5 16l-40 9v1394q53 9 162 9q136 0 227 -9v-419q79 -6 145 -17t137 -31.5t125 -54.5t98 -81.5t67.5 -117t23.5 -155.5zM735 512q0 97 -70.5 165t-166.5 68
l-19 -518q106 0 181 87.5t75 197.5z" />
    <glyph glyph-name="afii10046" unicode="&#x42c;" horiz-adv-x="1120" 
d="M1073 504q0 -231 -154.5 -370.5t-420.5 -139.5q-279 0 -406 10v1430h385v-457q27 4 76 4q139 0 257 -58.5t190.5 -169t72.5 -249.5zM713 438q0 130 -63.5 184t-182.5 54q-6 -204 -6 -457q123 0 187.5 60t64.5 159z" />
    <glyph glyph-name="afii10047" unicode="&#x42d;" horiz-adv-x="1193" 
d="M1143 670q0 -151 -55 -281.5t-147.5 -220t-216 -140.5t-259.5 -51q-138 0 -253.5 64.5t-191.5 187.5l93 142q51 -49 133 -73t162 -24q74 0 147 38t122.5 109t49.5 154h-436v232q140 0 278.5 4t171.5 4q0 104 -38.5 199.5t-114.5 159t-172 63.5q24 -44 24 -94
q0 -91 -65 -143t-152 -52q-79 0 -133.5 48.5t-54.5 133.5q0 75 27 133t69.5 92.5t101.5 56.5t115.5 30t118.5 8q211 0 365 -100.5t232.5 -275.5t78.5 -404z" />
    <glyph glyph-name="afii10048" unicode="&#x42e;" horiz-adv-x="1835" 
d="M1784 739q0 -109 -20 -214t-66.5 -207t-114.5 -178.5t-173 -123.5t-234 -47q-108 0 -195 38t-142.5 97t-96.5 143.5t-61.5 165.5t-31.5 175l-190 8v-596l-367 -12v1446h357q7 -290 16 -560l215 9q12 114 58.5 216.5t122 182t184 126t235.5 46.5q92 0 170 -33t131.5 -90
t94 -128t63.5 -153t34 -159.5t11 -151.5zM1434 758q0 50 -9 110t-29 129t-62.5 114.5t-100.5 45.5q-43 0 -77.5 -15.5t-56.5 -38.5t-38 -59t-24 -68t-12.5 -76.5t-5.5 -72t-1 -65.5q0 -72 1 -122t5 -114t11.5 -107t21.5 -88.5t33 -72.5t48 -44t66 -17q50 0 89.5 31.5
t63.5 85t40.5 112.5t23.5 127.5t10 115.5t3 89z" />
    <glyph glyph-name="afii10049" unicode="&#x42f;" horiz-adv-x="1417" 
d="M1325 0l-362 -14l-23 538q-32 0 -59 -25t-46 -66t-43 -92.5t-47.5 -105.5t-61.5 -106t-83.5 -92.5t-115.5 -65t-156 -24.5q-93 0 -179 40.5t-135 114.5l56 131q66 -22 108 -22q49 0 85.5 21t58 53.5t46 75.5t46.5 84.5t62 83.5t91 69q-282 128 -282 389q0 86 33 159.5
t88.5 125.5t127.5 89t151 55t159 18h481v-1434zM924 748l-2 434h-37q-107 0 -178.5 -65.5t-71.5 -164.5q0 -92 62 -148t155 -56h72z" />
    <glyph glyph-name="dagger" unicode="&#x2020;" horiz-adv-x="575" 
d="M535 1004q0 -17 -6.5 -53t-6.5 -38h-172q-8 -48 -8 -110q0 -70 17.5 -205t17.5 -195q0 -47 -25.5 -88t-70.5 -41q-37 0 -61.5 32t-24.5 71q0 27 11.5 83t23.5 146t12 199v108q-31 0 -101.5 6t-83.5 13q-4 31 -4 92l185 -8q0 36 -18.5 114.5t-18.5 112.5q0 107 96 107
q36 0 56 -29.5t20 -67.5q0 -12 -17 -100.5t-18 -136.5q22 -1 65.5 -3t76.5 -4t55 -5z" />
    <glyph glyph-name="degree" unicode="&#xb0;" horiz-adv-x="571" 
d="M469 1217q0 -69 -59 -121t-129 -52q-71 0 -125 50t-54 120q0 93 50.5 154.5t140.5 61.5q85 0 130.5 -62.5t45.5 -150.5zM377 1231q0 46 -26.5 77t-69.5 31q-39 0 -63.5 -31.5t-24.5 -70.5q0 -38 26.5 -65t65.5 -27q41 0 66.5 23t25.5 63z" />
    <glyph glyph-name="afii10050" unicode="&#x490;" horiz-adv-x="1046" 
d="M967 170q-58 -63 -111.5 -102.5t-109.5 -57.5t-102.5 -23t-117.5 -5l-39 -226l-10 -8l-110 31q-5 5 -5 10l27 223q-47 15 -100 51t-103 88.5t-83 126t-33 150.5q0 147 40 263.5t112.5 192t167.5 119t210 54.5q2 7 17 62.5t29.5 103t19.5 51.5l122 -33l-53 -190
q103 -28 160 -81t57 -153q0 -87 -66.5 -152t-154.5 -65q-46 0 -80 37l-90 -432q24 -17 60 -17q74 0 151.5 25.5t130.5 73.5zM557 829q-67 -12 -119.5 -65t-78 -120t-25.5 -134q0 -65 35 -143t77 -109z" />
    <glyph glyph-name="sterling" unicode="&#xa3;" horiz-adv-x="1253" 
d="M1212 483l-254 -583q-22 8 -86.5 41t-124 62t-140 53t-146.5 24q-42 0 -86.5 -21.5t-77.5 -47t-83 -47t-101 -21.5q-46 0 -69.5 28.5t-23.5 75.5q0 152 209 152q6 0 99 -6q16 84 16 172q0 154 -61 278l-201 -59l-51 125q37 15 75.5 29t88.5 30.5t79 26.5q-8 94 -8 143
q0 85 11.5 157t41.5 141t77 117.5t123 77.5t175 29q85 0 153 -51.5t68 -148.5q0 -76 -51.5 -140.5t-126.5 -64.5q-64 0 -102.5 61.5t-38.5 136.5q0 49 18 82h-4q-43 0 -74.5 -47.5t-43 -97.5t-11.5 -86q0 -29 7 -62t15 -55.5t23 -61t21 -55.5l274 72l53 -133l-305 -55
q4 -86 4 -95q-10 -113 -34 -196t-90 -244q22 3 123 22t163 19q38 0 89 -8t79 -21q3 1 39.5 75.5t77.5 158.5t45 92q145 -65 147 -74z" />
    <glyph glyph-name="section" unicode="&#xa7;" horiz-adv-x="903" 
d="M834 500q0 -109 -35 -180t-105 -121q6 -25 6 -54q0 -135 -110 -235t-256 -100q-61 0 -118 15.5t-99.5 53.5t-42.5 92q0 56 31.5 89.5t89.5 33.5q42 0 70 -30t28 -70q0 -35 -21 -57q36 -17 76 -17q70 0 121 42t51 108q0 49 -24.5 94.5t-63 83t-85.5 75.5t-94 80
t-85.5 88.5t-63 108.5t-24.5 133q0 40 5.5 71t20.5 60.5t25 45t37 51t39 51.5q-27 50 -27 112q0 125 105.5 232.5t242.5 107.5q101 0 176.5 -46t75.5 -130q0 -64 -35 -111t-102 -47q-50 0 -81.5 30t-31.5 75q0 74 88 94q-15 35 -65 35q-71 0 -136 -60t-65 -124
q0 -36 26.5 -75t69 -77t94 -80t103 -90.5t94 -100.5t69 -119t26.5 -138zM688 426q-5 112 -43 149q-59 66 -190.5 180t-186.5 173q-39 -69 -39 -119q0 -51 19 -95.5t50.5 -78.5t70.5 -65.5t80.5 -62t79 -61.5t68 -71t44.5 -84q39 14 47 135z" />
    <glyph glyph-name="bullet" unicode="&#x2022;" horiz-adv-x="1024" 
d="M920 578q0 -120 -59 -225.5t-161.5 -169.5t-222.5 -64q-161 0 -278 112t-117 273q0 186 135 317t322 131q161 0 271 -107t110 -267z" />
    <glyph glyph-name="paragraph" unicode="&#xb6;" horiz-adv-x="1130" 
d="M1083 1360v2q-27 -23 -67 -40.5t-74 -21.5q-22 -75 -22 -256q0 -77 5 -215.5t5 -181.5q0 -57 -11 -120.5t-34 -127.5t-67 -110t-101 -56q-2 -205 -21 -300q-49 -248 -249 -272q-23 -3 -48 -3q-82 0 -133 50t-51 132q0 50 38.5 88.5t88.5 38.5q40 0 65.5 -29.5t33.5 -64.5
t8 -76v-10q143 0 143 444q0 274 -14 422h-103q-90 0 -160 39t-110.5 103t-61 138.5t-20.5 153.5q0 95 61 180.5t152 135t182 49.5l285 -20q21 0 43.5 2.5t39.5 5.5t43 10.5t38.5 11t42.5 13t39 12.5zM838 647q0 116 -7 334.5t-8 316.5l-92 9q-1 -40 -13.5 -290.5
t-12.5 -383.5q0 -37 12 -262q36 1 61.5 32.5t37.5 79t17 88.5t5 76z" />
    <glyph glyph-name="afii10055" unicode="&#x406;" horiz-adv-x="800" 
d="M731 1430q2 -9 2 -37l-6 -164h-168v-383q0 -55 2 -82l17 -565h24q78 8 123 8v-201q-56 -10 -186 -10q-81 0 -249.5 5t-217.5 5q-2 19 -9 164h134v1081h-144v172q307 9 488 9q34 0 49 -2h141z" />
    <glyph glyph-name="registered" unicode="&#xae;" horiz-adv-x="1429" 
d="M1327 821q0 -114 -45 -226t-121.5 -200.5t-187.5 -143t-234 -54.5q-143 0 -264.5 56.5t-202 152.5t-125.5 222.5t-45 266.5q0 105 43 202.5t121.5 173.5t199.5 121.5t265 45.5q185 0 321 -79t205.5 -218t69.5 -320zM1237 852q0 114 -66 227.5t-179 188.5t-236 75
q-264 0 -409.5 -127t-145.5 -387q0 -108 42.5 -208t114.5 -172.5t172 -116t209 -43.5q86 0 165 34t138.5 91.5t104 130t67.5 152t23 155.5zM1016 946q0 -68 -45.5 -120t-112.5 -64l146 -264l-142 -13l-153 250h-119l-4 -233q-90 4 -119 10v653h276q60 0 105 -9t85.5 -31.5
t61.5 -67.5t21 -111zM862 948q0 37 -25 74t-77 37h-158q0 -137 -2 -209q16 -6 72 -6q27 0 42.5 0.5t41.5 3t41.5 9.5t32 18t24.5 29.5t8 43.5z" />
    <glyph glyph-name="copyright" unicode="&#xa9;" horiz-adv-x="1406" 
d="M1305 874q0 -140 -45 -263.5t-126 -215t-201 -145t-263 -53.5q-119 0 -215 34.5t-161.5 95t-109 146t-63 183.5t-19.5 210q0 168 83.5 303t224 209t307.5 74q161 0 295.5 -75t213.5 -208t79 -295zM1214 903q0 110 -68.5 216t-176.5 171.5t-217 65.5q-107 0 -205 -32
t-175.5 -90.5t-124 -150t-46.5 -202.5q0 -117 30 -221t88 -188t153.5 -133.5t217.5 -49.5q129 0 230.5 49.5t164.5 135t96 195t33 234.5zM1018 592q-176 -125 -311 -125q-155 0 -257 95.5t-102 248.5q0 96 55.5 183.5t144 139.5t183.5 52q47 0 91.5 -11.5t83.5 -34.5t63 -62
t24 -89q0 -55 -35.5 -94t-89.5 -39q-42 0 -76 37.5t-34 79.5q0 44 47 76q-45 30 -96 30q-57 0 -106 -45t-74 -106.5t-25 -116.5q0 -106 51.5 -169.5t155.5 -63.5q134 0 260 92z" />
    <glyph glyph-name="trademark" unicode="&#x2122;" horiz-adv-x="1490" 
d="M1419 780l-235 -12l2 37q0 54 -11.5 160.5t-13.5 134.5l-121 -309l-157 -11l-101 301l-43 -336l-116 5l57 620h238l98 -305l129 303h235l4 -2l35 -584v-2zM598 1241l-152 -6v-453l-208 -8v455h-2h-164v147h526v-135z" />
    <glyph glyph-name="afii10051" unicode="&#x402;" horiz-adv-x="1536" 
d="M1495 770v-674q0 -84 -4.5 -148t-17.5 -127t-34.5 -108t-56 -84t-82 -63t-112.5 -37.5t-148 -13.5h-108q-8 61 -8 182v119q20 4 52.5 9t48.5 7.5t40 9t36 14.5t26.5 21.5t21 32t11.5 45t5 61.5v596q0 44 -43 87.5t-86 43.5q-87 0 -149.5 -87.5t-65.5 -180.5l-16 -469
h-399v1178l-388 14v240h1149v-217q-49 -4 -175.5 -9t-192.5 -12v-399q70 106 201 181t255 75q58 0 115.5 -48.5t91 -115t33.5 -123.5z" />
    <glyph glyph-name="afii10099" unicode="&#x452;" horiz-adv-x="1316" 
d="M1272 643q0 -142 -2 -385.5t-2 -300.5q0 -74 -24 -134t-59.5 -97.5t-85.5 -66t-93.5 -42.5t-92.5 -22t-73.5 -9.5t-44.5 -1.5h-7q-18 135 -18 246v41h86q34 0 57.5 77t30 147t6.5 114v260q0 34 -7.5 77.5t-23 92.5t-46.5 82t-72 33q-40 0 -87.5 -23.5t-89.5 -63.5
t-70 -101t-28 -128v-444q-59 8 -168 10.5t-147 5.5q-12 35 -24.5 447t-12.5 626v52h-151v161h157q0 50 -3 120t-3 91l348 27v-244h365v-155h-367q1 -33 2.5 -91t2.5 -105.5t1 -90.5v-78q54 106 179.5 194.5t242.5 88.5q97 0 173.5 -66.5t113.5 -158.5t37 -185z" />
    <glyph glyph-name="notequal" unicode="&#x2260;" horiz-adv-x="937" 
d="M877 383l-11 -156h-549l-145 -176l-6 -2l-66 62l97 122h-152l8 150h273l118 158h-387v139h514l164 192l72 -53l-119 -143l178 -10v-152l-303 10l-119 -141h433z" />
    <glyph glyph-name="afii10052" unicode="&#x403;" horiz-adv-x="1087" 
d="M1010 1876q0 -35 -22.5 -68t-55.5 -53l-344 -209l-66 70l228 254q7 8 21.5 24.5t19.5 21.5t16.5 15.5t19 13.5t20.5 8t27.5 6t34.5 1q40 0 70.5 -22.5t30.5 -61.5zM1049 1143h-545v-1118l-412 -15q0 811 6 1413q6 7 203.5 17t353.5 10q7 0 15 -0.5t33 -1.5t59 -2.5
t109.5 -4.5t168.5 -7q9 -136 9 -291z" />
    <glyph glyph-name="afii10100" unicode="&#x453;" horiz-adv-x="862" 
d="M776 1534q0 -34 -23 -67.5t-55 -55.5l-342 -221l-65 70q227 268 233 274q29 35 43.5 49t41 23.5t67.5 9.5q40 0 70 -21.5t30 -60.5zM815 793l-418 -7v-790h-295v1028h703z" />
    <glyph glyph-name="infinity" unicode="&#x221e;" horiz-adv-x="1650" 
d="M1599 354q0 -55 -21.5 -99t-52.5 -69.5t-69 -42t-68 -22.5t-53 -6q-61 0 -113 9.5t-104.5 32.5t-83 39.5t-91.5 55t-87 53.5q-159 -112 -289 -167.5t-282 -55.5q-118 0 -192.5 83t-74.5 193q0 56 21.5 106t64.5 91t116 65.5t167 24.5q72 0 193.5 -52.5t185.5 -103.5
q352 187 541 187q145 0 218.5 -88.5t73.5 -233.5zM1464 334q0 70 -48 101.5t-122 31.5q-73 0 -175.5 -34.5t-160.5 -76.5q257 -135 390 -135q116 0 116 113zM684 426q-27 14 -85.5 47.5t-82 44t-72.5 22t-108 11.5q-96 0 -144.5 -40t-48.5 -97q0 -56 42 -100t106 -44
q63 0 127 23t151 71.5t115 61.5z" />
    <glyph glyph-name="afii10103" unicode="&#x456;" horiz-adv-x="1513" 
d="M1491 1386l-504 -774v-98q88 -10 268 -10q0 -42 -16 -90h-256l-4 -82l264 -19v-94l-256 12v-231h-405v242h-224q-2 24 -2 94l236 8v80h-242l-6 94q82 4 248 4v94l-504 818h449l335 -592l385 608l234 -59v-5z" />
    <glyph glyph-name="afii10057" unicode="&#x408;" horiz-adv-x="1136" 
d="M1090 1235l-142 -14q2 -39 2 -119q0 -81 -1.5 -145.5t-8 -161t-17.5 -172.5t-32 -167.5t-50 -160.5t-73.5 -138t-99.5 -113t-131 -71.5t-166 -27.5q-79 0 -139.5 19.5t-99 52.5t-62.5 83t-33.5 105.5t-9.5 124.5q0 63 22.5 116t56.5 85t72.5 49.5t73.5 17.5
q90 0 143.5 -44.5t53.5 -133.5q0 -40 -15 -68t-39 -41t-44 -18.5t-38 -5.5q2 -12 5 -32.5t4.5 -27.5t5.5 -19.5t8 -15.5t12.5 -8.5t20 -6.5t28.5 -1q178 0 178 645v408q-80 0 -200 20q1 6 6.5 55.5t11.5 92t10 49.5h687v-211z" />
    <glyph glyph-name="afii10053" unicode="&#x404;" horiz-adv-x="1341" 
d="M1264 94q-92 -67 -259.5 -103t-310.5 -36q-124 0 -230 43.5t-181 118t-128 173.5t-78.5 209.5t-25.5 225.5q0 158 56.5 298t154 241t236.5 160t297 59q58 0 90.5 -1.5t84.5 -9t88.5 -22.5t82 -44.5t86.5 -72.5q69 -72 69 -168q0 -88 -63.5 -151.5t-171.5 -63.5
q-56 0 -123.5 60.5t-67.5 138.5q0 56 39 106q-11 12 -57 23.5t-76 11.5q-49 0 -89 -16t-68.5 -40.5t-50.5 -64t-35.5 -78t-24 -91.5t-15.5 -93.5t-10 -95.5h494l-14 -227q-22 -8 -120.5 -11t-213 -3.5t-144.5 -2.5q0 -196 114.5 -286.5t332.5 -90.5q130 0 246 64z" />
    <glyph glyph-name="afii10101" unicode="&#x454;" horiz-adv-x="1001" 
d="M936 797q0 -63 -48 -100.5t-112 -37.5q-53 0 -94 33.5t-41 87.5q0 50 31 92q-41 27 -94 27q-74 0 -137.5 -50t-98.5 -120.5t-41 -142.5l375 -13v-133h-389q1 -132 82.5 -215.5t201.5 -83.5q141 0 254 123l68 -63q-67 -99 -171 -157t-222 -58q-139 0 -242 63.5t-155 171
t-52 244.5q0 111 36 215.5t100 186t162 131t212 49.5q375 0 375 -250z" />
    <glyph glyph-name="afii10056" unicode="&#x407;" horiz-adv-x="854" 
d="M737 1675q0 -58 -42 -99.5t-101 -41.5q-58 0 -100.5 39t-42.5 96q0 61 45.5 100t107.5 39q60 0 96.5 -36.5t36.5 -96.5zM340 1673q0 -66 -34 -107.5t-99 -41.5q-62 0 -103 43.5t-41 105.5q0 59 37 93t97 34q61 0 102 -34t41 -93zM754 6h-654l-8 164h121q-23 874 -29 1059
l-104 22l22 179h633v-201h-135v-1041l154 9v-191z" />
    <glyph glyph-name="afii10104" unicode="&#x457;" horiz-adv-x="563" 
d="M614 1364q0 -58 -43 -100.5t-102 -42.5q-58 0 -100.5 39.5t-42.5 97.5q0 61 45.5 100t107.5 39q60 0 97.5 -36.5t37.5 -96.5zM238 1360q0 -66 -35 -108t-99 -42q-62 0 -103.5 44t-41.5 106q0 59 38 95t97 36q61 0 102.5 -35.5t41.5 -95.5zM481 705q0 -42 -8.5 -218.5
t-17.5 -331.5l-9 -155h-364v1026h395v-2q4 -100 4 -319z" />
    <glyph glyph-name="afii10058" unicode="&#x409;" horiz-adv-x="2408" 
d="M2359 506q0 -149 -81.5 -271t-213 -188.5t-280.5 -66.5q-159 0 -469 4l-45 1130q-168 0 -250 8l-8 -157q-6 -119 -26 -234.5t-54 -230t-87 -211t-120.5 -171.5t-159 -117t-198.5 -42q-145 0 -234.5 81.5t-89.5 192.5q0 47 12 90.5t36 80.5t66 59t97 22q80 0 140.5 -59.5
t60.5 -140.5q36 24 66 68t51.5 94t38 123.5t27.5 135.5t18.5 152.5t11.5 151.5t5.5 155.5t2 142t0.5 132.5h1032l18 -475q75 18 146 18q99 0 187.5 -33.5t155 -94t105.5 -151t39 -198.5zM1976 461q0 105 -59 154t-182 49q12 -300 12 -447q63 1 109.5 21.5t71.5 56.5t36.5 77
t11.5 89z" />
    <glyph glyph-name="afii10106" unicode="&#x459;" horiz-adv-x="2019" 
d="M1972 387q0 -99 -27.5 -174t-72.5 -120.5t-111.5 -74t-136 -39t-154.5 -10.5q-261 0 -444 29v772h-205q-1 -79 -8 -153.5t-24.5 -155.5t-44 -150.5t-69 -132.5t-96 -107.5t-128.5 -71t-164 -26.5q-114 0 -175 71t-61 185q0 72 68 131.5t141 59.5q42 0 71 -19.5
t43.5 -53.5t20.5 -69t6 -75l-2 -39q40 7 72 40t53 78t36 112t22.5 127.5t12.5 140.5t6.5 135t2.5 126.5t2 100.5h811v-299q64 0 133 -9t146 -33t137 -60.5t99.5 -97.5t39.5 -138zM1647 352q0 87 -66.5 132.5t-155.5 45.5v-372q222 8 222 194z" />
    <glyph glyph-name="afii10059" unicode="&#x40a;" horiz-adv-x="1957" 
d="M1898 430q0 -126 -86 -232t-218.5 -163.5t-274.5 -57.5q-57 0 -153.5 5.5t-163.5 11.5l-68 6l-19 528q-135 9 -204 9q-91 0 -215 -17q0 -6 -1.5 -149.5t-5 -249t-10.5 -121.5h-387v1432h404v-584h419q0 72 12 218.5t24 257.5l12 110h335q9 -149 9 -496q20 -2 96.5 -3
t114.5 -9q191 -41 285.5 -169.5t94.5 -326.5zM1518 471q0 93 -62.5 139.5t-157.5 46.5q-1 -35 -7.5 -188t-6.5 -236q16 -8 49 -8q49 0 86 21.5t58 58t31 78.5t10 88z" />
    <glyph glyph-name="afii10107" unicode="&#x45a;" horiz-adv-x="1767" 
d="M1710 440q0 -86 -34 -159.5t-90.5 -124t-130 -86.5t-153 -53t-159.5 -17h-359v401h-307v-407q-147 -12 -270 -12q-76 0 -105 4v1018h398v-359l278 14v365h387v-272q60 -1 103 -3t104 -10t104 -20.5t90.5 -36t76.5 -55t48 -79.5t19 -108zM1346 379q0 164 -193 178v-373
q69 0 131 63t62 132z" />
    <glyph glyph-name="afii10105" unicode="&#x458;" horiz-adv-x="694" 
d="M590 1436q0 -111 -75.5 -188t-188.5 -77q-80 0 -139.5 79.5t-59.5 156.5q0 83 66.5 155t156.5 72q85 0 162.5 -59t77.5 -139zM559 1012q-2 -95 -2.5 -297.5t-2 -328t-15.5 -298t-41 -309.5q-16 -81 -72.5 -148t-133 -108t-162 -63.5t-165.5 -22.5q-91 0 -179.5 36.5
t-149 108t-60.5 160.5q0 87 44.5 142t109.5 55q89 0 128.5 -35t39.5 -74q0 -35 -15 -74.5t-41 -64.5q40 -62 131 -62q67 0 110.5 49.5t62 130t18.5 191.5v1010q88 14 209 14q95 0 186 -12z" />
    <glyph glyph-name="afii10054" unicode="&#x405;" horiz-adv-x="1126" 
d="M1069 432q0 -103 -49 -191t-128 -144.5t-175 -88t-193 -31.5q-132 0 -275.5 58.5t-211.5 154.5q99 144 164 203q52 -70 127.5 -108.5t148.5 -38.5q72 0 134.5 45.5t62.5 120.5q0 40 -31.5 71.5t-81.5 55t-111 48.5t-122 61.5t-111 84.5t-81.5 126.5t-31.5 178.5
q0 116 73 216t185 156t230 56q122 0 224.5 -34t167.5 -103t65 -160q0 -219 -193 -219q-75 0 -121.5 44.5t-46.5 107.5q0 61 64 100q-42 51 -123 51q-28 0 -57 -8t-57 -24.5t-46 -48t-18 -72.5q0 -49 21 -89t57 -68.5t82.5 -53.5t97.5 -48t102 -48t97.5 -58t82.5 -73.5
t57 -99t21 -130.5z" />
    <glyph glyph-name="logicalnot" unicode="&#xac;" horiz-adv-x="1056" 
d="M1020 436h-111v23q0 35 -4 98.5t-4 71.5h-821v139h940v-332z" />
    <glyph glyph-name="guillemotleft" unicode="&#xab;" horiz-adv-x="829" 
d="M795 223l-45 -51l-322 330l332 317l31 -39l-179 -276zM623 68l-70 -66l-504 498l504 497l53 -65l-295 -440z" />
    <glyph glyph-name="guillemotright" unicode="&#xbb;" horiz-adv-x="831" 
d="M788 500l-503 -498l-54 66l295 440l-311 424l70 65zM410 498l-332 -318l-31 39l178 277l-182 280l45 51z" />
    <glyph glyph-name="ellipsis" unicode="&#x2026;" horiz-adv-x="1714" 
d="M1612 205q0 -105 -61 -162t-167 -57q-72 0 -112.5 57t-40.5 133q0 90 55.5 152.5t145.5 62.5q76 0 128 -55t52 -131zM1001 176q0 -75 -51.5 -125.5t-128.5 -50.5t-125.5 56t-48.5 134q0 69 40.5 139t105.5 70q100 0 154 -62t54 -161zM461 207q0 -73 -46.5 -137
t-117.5 -64q-81 0 -138 70.5t-57 152.5q0 68 56 119t125 51q73 0 125.5 -59t52.5 -133z" />
    <glyph glyph-name="afii10060" unicode="&#x40b;" horiz-adv-x="1533" 
d="M1493 750v-750h-336v588q0 70 -37 112.5t-84 42.5q-58 0 -114 -53.5t-87.5 -124.5t-31.5 -129v-430h-363v178q0 196 -16 560.5t-18 439.5q-130 6 -388 14v217q305 23 764 23h365l20 -217q-233 -7 -372 -21v-350q74 98 186 150.5t240 52.5q70 0 134 -45t101 -115t37 -143z
" />
    <glyph glyph-name="afii10108" unicode="&#x45b;" horiz-adv-x="1302" 
d="M1227 643q0 -221 -4 -643h-334v508q0 49 -13.5 101.5t-44.5 94t-71 41.5q-129 0 -193.5 -62.5t-64.5 -199.5v-489q-59 8 -168.5 10.5t-147.5 5.5q-12 35 -24 454.5t-12 670.5h-123v161h129l8 220l338 18q8 -141 8 -217v-21q4 0 70.5 1t113.5 1q155 0 168 -8v-155h-352
q0 -51 -4 -122.5t-4 -160.5q48 97 160 149t241 52q97 0 173.5 -66.5t113.5 -158.5t37 -185z" />
    <glyph glyph-name="afii10061" unicode="&#x40c;" horiz-adv-x="1447" 
d="M1094 1704q0 -35 -22.5 -68t-55.5 -53l-344 -209l-66 70l228 254q7 8 21.5 24.5t19.5 21.5t16.5 15.5t19 13.5t20.5 8t27.5 6t34.5 1q40 0 70.5 -22.5t30.5 -61.5zM1358 1284q0 -79 -60 -142t-147 -63q-33 0 -61.5 12.5t-41.5 25.5l-12 13q0 -73 -20.5 -141.5t-70.5 -132
t-124 -98.5v-6q74 -24 132.5 -64.5t94 -85t63 -93t47 -92t39 -79t46 -56t60.5 -20.5q47 0 71 8l35 -198q-35 -32 -101.5 -55t-115.5 -30l-49 -7q-75 0 -134.5 23t-99.5 61.5t-71.5 89t-54 105.5t-44 110.5t-45 106t-51.5 89t-70 61.5t-96 23v-649h-385v1460l416 -20
q-1 2 -1 -42.5v-117t-0.5 -151t-1 -157.5t-1.5 -124q72 0 122.5 34t80 88t54 119.5t54.5 131t71.5 119.5t115 88t174.5 34q84 0 133 -54.5t49 -123.5z" />
    <glyph glyph-name="afii10109" unicode="&#x45c;" horiz-adv-x="1103" 
d="M895 1401q0 -34 -23 -67.5t-55 -55.5l-342 -221l-65 69l233 275q29 35 43.5 49t41 23.5t67.5 9.5q40 0 70 -21.5t30 -60.5zM1155 4l-453 -4q-45 60 -144 171t-142 167h-33v-338h-332v991l291 27l8 -8q27 -85 27 -222v-251q43 4 77 33.5t59 73t49.5 95.5t55.5 103.5
t70 93.5t100 68t138 26h14q81 -31 106 -81.5t25 -143.5v-27q-39 -66 -79.5 -102.5t-102.5 -36.5q-45 0 -80 26.5t-51 67.5q-16 -7 -28.5 -19t-20 -22.5t-14.5 -29.5t-9 -28.5t-7.5 -33t-6.5 -29.5z" />
    <glyph glyph-name="afii10102" unicode="&#x455;" horiz-adv-x="960" 
d="M516 1067q108 0 184.5 -20t116.5 -56t57 -76t17 -88q0 -78 -49 -126t-115 -48q-47 0 -91 39t-44 90q0 44 35 80q-34 31 -84 31q-45 0 -78 -25.5t-33 -66.5q0 -36 23 -68t60 -57.5t81.5 -51t89 -54.5t81.5 -62.5t60 -80t23 -101.5q0 -79 -26.5 -140.5t-70 -99.5
t-104.5 -62.5t-123.5 -34t-134.5 -9.5q-107 0 -203.5 62.5t-144.5 137.5l119 125q48 -40 129.5 -87.5t122.5 -47.5q56 0 86 17t30 69q0 20 -21.5 40.5t-56.5 40t-76.5 42.5t-83.5 53t-77 66t-56.5 88t-21.5 112q0 80 37 150t95 115.5t122.5 72.5t124.5 31z" />
    <glyph glyph-name="endash" unicode="&#x2013;" horiz-adv-x="1189" 
d="M1112 641l-1040 -12v137h1044z" />
    <glyph glyph-name="emdash" unicode="&#x2014;" horiz-adv-x="1454" 
d="M1405 641l-1366 -12v137h1354z" />
    <glyph glyph-name="quotedblleft" unicode="&#x201c;" horiz-adv-x="1056" 
d="M954 911q0 -81 -62.5 -119t-150.5 -38q-44 0 -80 26t-57 67t-32 86t-11 87q0 91 70 224t147 167l58 -78q-5 -6 -22.5 -28t-22.5 -29t-18.5 -26t-18 -29t-11.5 -27t-9.5 -32t-2.5 -32q0 -13 8 -55q34 23 72 23q60 0 101.5 -58.5t41.5 -128.5zM496 911q0 -81 -63 -119
t-150 -38q-58 0 -101.5 45.5t-61.5 104t-18 116.5q0 91 70 224t147 167l56 -78q-36 -44 -52 -66t-33.5 -61.5t-17.5 -75.5q0 -28 9 -55q32 23 71 23q60 0 102 -58.5t42 -128.5z" />
    <glyph glyph-name="quotedblright" unicode="&#x201d;" horiz-adv-x="1056" 
d="M954 1145q0 -57 -31 -139.5t-82.5 -156t-103.5 -95.5l-55 80q35 44 51 65.5t33.5 61t17.5 75.5q0 28 -8 56q-32 -23 -71 -23q-60 0 -102 58t-42 128q0 56 33.5 92.5t79 50t100.5 13.5q58 0 101 -45.5t61 -104t18 -116.5zM496 1145q0 -91 -70 -224t-147 -167l-58 80
q6 8 25.5 32.5t26 33.5t20 30t18.5 34.5t10 33t5 38.5q0 18 -9 56q-32 -23 -71 -23q-60 0 -102 58t-42 128q0 56 33.5 92.5t79 50t100.5 13.5q58 0 101.5 -45.5t61.5 -104t18 -116.5z" />
    <glyph glyph-name="quoteleft" unicode="&#x2018;" horiz-adv-x="598" 
d="M496 911q0 -81 -63 -119t-150 -38q-58 0 -101.5 45.5t-61.5 104t-18 116.5q0 91 70 224t147 167l56 -78q-36 -44 -52 -66t-33.5 -61.5t-17.5 -75.5q0 -28 9 -55q32 23 71 23q60 0 102 -58.5t42 -128.5z" />
    <glyph glyph-name="quoteright" unicode="&#x2019;" horiz-adv-x="598" 
d="M496 1145q0 -91 -70 -224t-147 -167l-58 80q6 8 25.5 32.5t26 33.5t20 30t18.5 34.5t10 33t5 38.5q0 18 -9 56q-32 -23 -71 -23q-60 0 -102 58t-42 128q0 56 33.5 92.5t79 50t100.5 13.5q58 0 101.5 -45.5t61.5 -104t18 -116.5z" />
    <glyph glyph-name="lozenge" unicode="&#x25ca;" horiz-adv-x="1046" 
d="M944 53q0 -56 -31 -138.5t-82.5 -155.5t-103.5 -95l-57 78q6 8 25.5 33t26 34t20 30t18.5 34.5t9.5 33t4.5 38.5q0 15 -8 55q-36 -23 -72 -23q-60 0 -101.5 58.5t-41.5 128.5q0 56 33.5 92.5t79 49.5t100.5 13q44 0 80 -26t57 -67t32 -86t11 -87zM496 53
q0 -90 -70 -222.5t-147 -166.5l-58 78q7 9 25.5 33t26 34t20.5 30t18.5 34t10 33.5t4.5 38.5t-9 55q-35 -23 -71 -23q-60 0 -102 58.5t-42 128.5q0 56 33.5 92.5t79 49.5t100.5 13q58 0 101.5 -45.5t61.5 -104t18 -116.5z" />
    <glyph glyph-name="afii10062" unicode="&#x40e;" horiz-adv-x="1521" 
d="M1399 1745q-104 -99 -244.5 -162t-275.5 -63q-59 0 -110 6.5t-88.5 14t-78 27.5t-64.5 33.5t-63.5 46t-59 50.5t-65.5 61l223 178q133 -129 293 -129q173 0 361 144zM1497 1442q-30 -80 -52.5 -138t-71.5 -178.5t-91 -213.5t-103.5 -220t-116.5 -222t-123 -196
t-130 -165.5t-130.5 -106t-131.5 -41.5q-92 0 -173.5 31.5t-137.5 100.5t-56 163q0 103 69.5 182.5t170.5 79.5q48 0 84.5 -21t60.5 -61t37.5 -75t26.5 -85q36 25 80 86q-68 157 -160.5 337t-209 395.5t-175.5 330.5l395 23l348 -715h6l304 692z" />
    <glyph glyph-name="afii10110" unicode="&#x45e;" horiz-adv-x="1292" 
d="M1159 1634q-5 -89 -67.5 -179t-150.5 -146t-165 -56q-119 0 -204.5 27.5t-133 77t-69 110.5t-21.5 136l205 12q99 -133 248 -133q50 0 85 13t54.5 38t28 44.5t16.5 49.5zM1286 1032l-530 -1276q-48 -116 -144 -176.5t-227 -60.5q-68 0 -154 20.5t-137 63.5q0 35 11 104.5
t20 95.5q112 -47 184 -47q102 0 152 53t84 179q-64 120 -185 375t-210 450l-89 195l437 24l260 -590l211 592h129z" />
    <glyph glyph-name="afii10145" unicode="&#x40f;" horiz-adv-x="1492" 
d="M1401 -8q-268 -8 -486 -8l-26 -441q-189 -4 -400 -4v455q-233 0 -397 12v1403q205 29 307 29l62 -4v-1123h493q8 15 11 48.5t3.5 116.5t1.5 192.5t7 320.5t18 455h353q4 -28 10.5 -101.5t20.5 -443.5t22 -907z" />
    <glyph glyph-name="afii10193" unicode="&#x45f;" horiz-adv-x="1286" 
d="M1184 1053q-10 -796 -10 -1053h-343q-8 -197 -10 -295l-377 -18v321q2 0 -25 0t-69.5 0.5t-89 1t-90.5 0.5h-68v1012l387 18v-817h328v807z" />
    <glyph glyph-name="afii61352" unicode="&#x2116;" horiz-adv-x="2207" 
d="M2146 831q0 -75 -67 -137.5t-144 -62.5q-78 0 -137 59t-59 137q0 72 60.5 137.5t131.5 65.5q91 0 153 -54.5t62 -144.5zM2111 532q0 -16 -1 -34t-2.5 -39.5t-2.5 -34.5q-36 -6 -75 -6l-269 10l-6 111l4 -7h352zM2093 334l10 -19q0 -53 -6 -106q-33 -6 -72 -6l-270 10
l-10 106h2zM1980 1382q0 -108 -46 -165.5t-130 -57.5q-58 0 -85 48.5t-27 113.5l2 29q-84 0 -84 -68q0 -5 -4 -63.5t-4 -133.5q0 -725 18 -1085q-14 -4 -45 -4q-28 0 -86 4q-119 133 -166 186t-152.5 175.5t-166 200.5t-138 186t-137.5 206q8 -155 8 -401q0 -70 -2.5 -124.5
t-12 -121t-26 -116.5t-46.5 -99.5t-70.5 -81.5t-100.5 -51.5t-135 -19.5q-60 0 -127.5 46.5t-111.5 114t-44 125.5q0 74 43.5 132.5t118.5 58.5q67 0 126 -62t59 -129q0 -98 -121 -129q49 -35 102 -35q48 0 86.5 34.5t62.5 92t41 122t25 136t11 122t3 91.5v187q0 49 -5 109
t-10 101.5t-14.5 113t-13.5 100.5h-161l-13 137h453l639 -770q-12 147 -12 297v250q0 358 291 358q89 0 148.5 -42.5t59.5 -117.5zM2030 823q0 39 -22.5 71t-59.5 32q-40 0 -70.5 -34t-30.5 -73q0 -35 26.5 -61.5t61.5 -26.5q39 0 67 27t28 65z" />
    <glyph glyph-name="afii10023" unicode="&#x401;" horiz-adv-x="1069" 
d="M989 1704q0 -61 -44.5 -104.5t-104.5 -43.5q-61 0 -106.5 42t-45.5 102q0 64 48 103.5t114 39.5q63 0 101 -38t38 -101zM547 1702q0 -68 -36.5 -112t-102.5 -44t-109 45.5t-43 110.5q0 61 40 98t101 37q63 0 106.5 -36.5t43.5 -98.5zM1044 141q-25 -40 -62 -71t-84 -49
t-91 -30t-102 -16.5t-96.5 -6t-94.5 -1.5q-101 0 -202 62t-165.5 161t-64.5 201t48.5 193.5t131.5 160.5v11q-143 124 -143 280q0 91 30.5 164t81.5 121.5t121 81.5t146.5 47t160.5 14q76 0 195 -52.5t170 -108.5l-129 -142q-90 64 -229 64q-88 0 -160 -58t-72 -143
q0 -29 15 -51.5t42.5 -36t57.5 -22.5t70 -13t69 -5.5t66 -2.5t49 -2l-15 -221q-55 0 -112.5 -10.5t-115.5 -33t-95 -67t-37 -104.5q0 -117 76 -177.5t196 -60.5q122 0 224 51q9 -8 28 -26t28 -27t22.5 -23t23 -26t18.5 -25z" />
    <glyph glyph-name="afii10071" unicode="&#x451;" horiz-adv-x="1081" 
d="M973 1442q0 -67 -49 -115.5t-117 -48.5t-117 45t-49 113q0 71 53 115t125 44q71 0 112.5 -41.5t41.5 -111.5zM457 1438q0 -77 -39 -124.5t-115 -47.5q-73 0 -119.5 49t-46.5 123q0 68 43 108.5t111 40.5q71 0 118.5 -40t47.5 -109zM1032 207q-72 -77 -129 -118
t-137.5 -65t-192.5 -24q-144 0 -264.5 73.5t-189 197.5t-68.5 268q0 54 13.5 113.5t52.5 131t98.5 127t162.5 93.5t234 38q95 0 164.5 -26.5t110.5 -69t65.5 -109t32.5 -134.5t8 -158l-590 -25q0 -129 74.5 -220t200.5 -91q45 0 132.5 41t125.5 74zM682 678q0 28 -3 53
t-12 55t-28.5 48t-48.5 18q-60 0 -115 -63t-55 -123q176 12 262 12z" />
    <glyph glyph-name="afii10097" unicode="&#x44f;" horiz-adv-x="1185" 
d="M1083 0h-344v311l-92 -8l-225 -326l-383 35q22 25 143 175.5t164 189.5q-27 9 -47.5 18.5t-55 34t-57 54t-40 80t-17.5 112.5q0 69 20 124.5t51 92t80.5 63t96 40.5t110.5 22t111.5 10t110.5 2q203 0 374 -10v-1020zM748 492v313h-121q-81 0 -134 -43t-53 -125
q0 -65 46.5 -102t113.5 -37q64 0 148 -6z" />
    <glyph glyph-name="afii10065" unicode="&#x430;" horiz-adv-x="1081" 
d="M1075 47q0 -13 -86.5 -34t-114.5 -21q-51 0 -87 23.5t-82 70.5q-16 -11 -53 -38t-52.5 -36t-44.5 -24t-57.5 -20t-63.5 -5q-137 0 -240.5 83.5t-103.5 217.5q0 60 24.5 112t66.5 88.5t95 64.5t113.5 45t118.5 26t113 10q0 35 -0.5 56.5t-3.5 54.5t-8 54t-15 46t-24.5 39
t-36.5 23.5t-50 9.5q-57 0 -102 -30.5t-45 -74.5q24 -24 24 -75q0 -54 -41 -88.5t-96 -34.5q-56 0 -103.5 37t-47.5 84q0 69 27.5 125.5t72.5 93t104.5 61.5t121 36t124.5 11q295 0 394 -202q59 -120 63 -363v-59v-138q0 -15 9.5 -32t23.5 -17q45 5 51 6q1 -21 4.5 -58.5
t5.5 -68.5t2 -59zM645 201v88q0 26 -1.5 47.5t-4.5 48t-4 47.5h-19q-237 0 -237 -137q0 -60 46.5 -95.5t109.5 -35.5q12 0 27 4t26 8.5t29.5 12.5t27.5 12z" />
    <glyph glyph-name="afii10066" unicode="&#x431;" horiz-adv-x="1138" 
d="M1096 477q0 -72 -18 -141t-56 -131.5t-92.5 -109t-133 -74t-171.5 -27.5q-115 0 -207 29t-155.5 81t-106 127t-61.5 165t-19 198q0 91 10 156q18 122 56.5 213.5t88 144.5t109 88t121 49t122 21.5t115 11.5t96.5 12.5t69 31.5t32 62l6 54l174 -15v-102q0 -84 -37 -149.5
t-97.5 -103.5t-130 -57.5t-142.5 -19.5q-68 0 -115 -4t-99.5 -19.5t-84 -43t-52 -77.5t-20.5 -120q67 67 159 102t191 35q205 0 327 -109.5t122 -277.5zM756 438q0 43 -6 82.5t-19.5 80.5t-42.5 66t-70 25q-61 0 -101.5 -38.5t-55.5 -89.5t-15 -109q0 -45 9.5 -97.5
t28.5 -105t53 -87t77 -34.5q37 0 66 38t44.5 91.5t23.5 100.5t8 77z" />
    <glyph glyph-name="afii10067" unicode="&#x432;" horiz-adv-x="1026" 
d="M971 262q0 -272 -379 -272q-188 0 -508 28v1006h567q109 0 197 -71t88 -171q0 -70 -46 -142t-118 -103q84 -39 141.5 -115t57.5 -160zM633 727q0 27 -8.5 47.5t-28.5 32.5t-38.5 20t-52.5 11t-55 4t-61 2v-250h92q58 0 105 38.5t47 94.5zM643 303q0 129 -254 129v-246h94
q64 0 112 28.5t48 88.5z" />
    <glyph glyph-name="afii10068" unicode="&#x433;" horiz-adv-x="897" 
d="M877 776l-426 -6v-770h-349v1024h764z" />
    <glyph glyph-name="afii10069" unicode="&#x434;" horiz-adv-x="1462" 
d="M1391 -270l-367 8l-10 262h-627l-37 -276q-238 18 -323 18q2 57 7.5 126.5t9.5 110.5t13.5 131.5t12.5 116.5h188q77 126 117.5 316.5t40.5 359.5q0 80 -8 121h794v-807l189 -6v-481zM887 213v588l-244 12q-7 -192 -34.5 -331.5t-106.5 -268.5h385z" />
    <glyph glyph-name="afii10070" unicode="&#x435;" horiz-adv-x="1083" 
d="M1032 207q-72 -77 -129 -118t-137.5 -65t-192.5 -24q-144 0 -264.5 73.5t-189 197.5t-68.5 268q0 54 13.5 113.5t52.5 131t98.5 127t162.5 93.5t234 38q95 0 164.5 -26.5t110.5 -69t65.5 -109t32.5 -134.5t8 -158l-590 -25q0 -129 74.5 -220t200.5 -91q45 0 132.5 41
t125.5 74zM682 678q0 28 -3 53t-12 55t-28.5 48t-48.5 18q-60 0 -115 -63t-55 -123q176 12 262 12z" />
    <glyph glyph-name="afii10072" unicode="&#x436;" horiz-adv-x="1718" 
d="M1706 846q0 -74 -56.5 -115t-133.5 -41q-29 0 -61.5 18t-47.5 42l-152 -154l410 -596h-336q-5 7 -132.5 168t-178.5 229v-397h-352v408q-24 -32 -96.5 -137.5t-130.5 -188t-62 -82.5h-352l411 586l-84 129q-71 -47 -135 -47q-79 0 -123.5 50.5t-44.5 131.5q0 63 62.5 105
t128.5 42q55 0 105.5 -32.5t90 -83.5t75 -105t76.5 -106.5t79 -77.5v432h350v-432q45 32 97.5 87t97 104.5t96.5 96.5t116 75t136 28q57 0 102 -39t45 -98z" />
    <glyph glyph-name="afii10073" unicode="&#x437;" horiz-adv-x="903" 
d="M844 295q0 -81 -39 -144t-105.5 -100.5t-148.5 -56.5t-174 -19q-114 0 -215 70.5t-129 165.5l108 70q50 -57 117.5 -100.5t126.5 -43.5q67 0 101 38.5t34 107.5q0 53 -44 90.5t-101 52t-117 14.5l8 133h82q40 0 68.5 5t56 19.5t41.5 45t14 76.5q0 63 -49 104.5t-114 44.5
q2 -8 2 -24q0 -59 -35.5 -96t-89.5 -37q-70 0 -101.5 32.5t-31.5 116.5q0 54 35 92.5t93 57t115.5 26.5t120.5 8q80 0 162 -34t141.5 -101.5t59.5 -148.5q0 -74 -51.5 -139t-122.5 -89q93 -38 137.5 -90.5t44.5 -146.5z" />
    <glyph glyph-name="afii10074" unicode="&#x438;" horiz-adv-x="1286" 
d="M1184 35q-29 -8 -159.5 -16.5t-207.5 -8.5h-18q-6 11 -10 126.5t-6.5 263t-2.5 151.5l-291 -559q-24 -1 -68.5 -2.5t-81 -2.5t-69.5 -1h-141q-27 89 -27 542v177q0 191 9 335q137 0 231.5 -7.5t120.5 -14.5l26 -8q-18 -359 -18 -537q320 491 330 555v-2h47q248 0 305 -10
q31 -644 31 -871v-110z" />
    <glyph glyph-name="afii10075" unicode="&#x439;" horiz-adv-x="1198" 
d="M1012 1454q-4 -91 -40 -163t-92 -114.5t-120.5 -64.5t-132.5 -22q-152 0 -256 107.5t-129 262.5h204q40 -74 83.5 -108.5t117.5 -34.5q34 0 61 7t43.5 14.5t32 26t21 27.5t18 33.5t15.5 30.5zM1096 0h-373v506q-21 -31 -102.5 -159t-152 -235t-91.5 -128l-275 47v934h338
v-488l318 488l338 20v-985z" />
    <glyph glyph-name="afii10076" unicode="&#x43a;" horiz-adv-x="1183" 
d="M1184 10q-320 -8 -436 -10l-291 369v-369h-355v1018l336 18l19 -487q40 4 72.5 34t56 75.5t47 99.5t51 107.5t61 97t85.5 71t116 27.5q91 0 150 -45.5t59 -134.5q0 -86 -59.5 -156t-143.5 -70q-41 0 -76 27t-51 70q-21 -11 -35.5 -28.5t-24 -46t-13 -43t-9.5 -48.5z" />
    <glyph glyph-name="afii10077" unicode="&#x43b;" horiz-adv-x="1456" 
d="M1354 -16l-379 14v813h-225v-53q0 -86 -4.5 -161t-17.5 -160.5t-34 -155.5t-56.5 -135.5t-82.5 -110t-115 -71.5t-151 -27q-115 0 -192 79.5t-77 188.5q0 98 56.5 156.5t140.5 58.5q67 0 115.5 -56.5t48.5 -132.5q0 -33 -12 -69q153 21 153 792v66q92 1 383 4.5t449 3.5
v-1044z" />
    <glyph glyph-name="afii10078" unicode="&#x43c;" horiz-adv-x="1691" 
d="M1589 16l-440 -26q-2 3 -11 137.5t-19 281t-11 162.5l-227 -544l-295 -15l-185 531l-82 -543h-217l111 1030h440l181 -518l241 512h447z" />
    <glyph glyph-name="afii10079" unicode="&#x43d;" horiz-adv-x="1339" 
d="M1237 0l-401 -6v407h-359v-415h-375v1038h398v-379l329 14v365l408 20v-1044z" />
    <glyph glyph-name="afii10080" unicode="&#x43e;" horiz-adv-x="1257" 
d="M1206 535q0 -161 -66 -290.5t-196.5 -206.5t-304.5 -77q-156 0 -291 70.5t-216 194.5t-81 272q0 117 50.5 221.5t134.5 177t195.5 114.5t230.5 42q152 0 279 -76t196 -194.5t69 -247.5zM799 516q0 36 -3.5 75t-14 89t-27.5 87.5t-48 64t-71 26.5q-59 0 -103.5 -54
t-63.5 -120t-19 -123q0 -424 169 -424q36 0 65 15t47.5 38t32 58t20.5 66.5t11 73t4.5 68t0.5 60.5z" />
    <glyph glyph-name="afii10081" unicode="&#x43f;" horiz-adv-x="1316" 
d="M1214 1026l-6 -1026l-372 14v768l-312 -14v-756l-422 -26v1040h1112z" />
    <glyph glyph-name="afii10082" unicode="&#x440;" horiz-adv-x="1130" 
d="M1081 535q0 -93 -30.5 -188.5t-85 -176t-140 -131.5t-184.5 -51q-119 0 -227 108l-19 -506h-329v1432l350 16v-120q130 116 317 116q68 0 122.5 -21t92 -58.5t64 -84.5t41.5 -105t21.5 -114t6.5 -116zM727 530q0 67 -14 125t-45.5 97t-75.5 39q-77 0 -129.5 -42.5
t-52.5 -119.5v-232q0 -161 135 -161q78 0 130 89.5t52 204.5z" />
    <glyph glyph-name="afii10083" unicode="&#x441;" horiz-adv-x="1050" 
d="M983 207q-200 -244 -469 -244q-130 0 -238 75.5t-166.5 194t-58.5 248.5q0 171 68.5 303t199.5 206.5t304 74.5q97 0 182 -28t143 -88.5t58 -141.5q0 -88 -55.5 -147.5t-137.5 -59.5q-74 0 -114 42t-40 114q0 12 -24.5 21t-52.5 9q-61 0 -105 -27.5t-66.5 -75.5t-32 -99
t-9.5 -111q0 -95 66.5 -159t160.5 -64q128 0 293 123q16 -24 31.5 -51.5t34 -62t28.5 -52.5z" />
    <glyph glyph-name="afii10084" unicode="&#x442;" horiz-adv-x="1095" 
d="M1047 791l-308 -7v-784l-391 -18v790h-303v252h1002v-233z" />
    <glyph glyph-name="afii10085" unicode="&#x443;" horiz-adv-x="1173" 
d="M1202 1024l-405 -1020q-24 -59 -43.5 -103t-49.5 -99.5t-59.5 -95.5t-70 -80.5t-85 -66t-101 -41.5t-120.5 -16q-101 0 -193.5 78.5t-92.5 175.5q0 85 46.5 141t129.5 56q80 0 132 -46t52 -116q0 -10 -4 -24t-10.5 -32t-8.5 -24q28 1 54 18.5t45.5 42t40 65.5t34.5 76
t33 87l-479 1034h447l221 -559l188 549h299z" />
    <glyph glyph-name="afii10086" unicode="&#x444;" horiz-adv-x="1449" 
d="M1395 453q0 -114 -75 -226t-187 -184t-224 -84v-301h-360l-12 295q-224 21 -363 158t-139 358q0 106 36 205.5t99.5 176t158 123t203.5 46.5v321h361l10 -309q141 -14 238 -59.5t152 -123t78.5 -173t23.5 -223.5zM1110 524q0 98 -54.5 181.5t-140.5 97.5v-635
q64 20 110 81.5t65.5 132.5t19.5 142zM537 152v661q-88 -43 -142.5 -140t-54.5 -200q0 -42 13 -95t36.5 -104.5t62.5 -86.5t85 -35z" />
    <glyph glyph-name="afii10087" unicode="&#x445;" horiz-adv-x="1120" 
d="M1077 0h-399q-86 130 -133.5 205.5t-55.5 89.5t-6 14l2 -2l-254 -327l-217 28l357 443l-367 589h422l182 -288l213 297l211 -29l-293 -463z" />
    <glyph glyph-name="afii10088" unicode="&#x446;" horiz-adv-x="1308" 
d="M1270 209l12 -504l-369 -18l-18 313h-793v1022l383 18v-835h224q18 544 18 821h348v-817h195z" />
    <glyph glyph-name="afii10089" unicode="&#x447;" horiz-adv-x="1140" 
d="M694 1024l344 6q0 -251 -14 -1030l-354 -12v317q-32 -17 -104 -34t-134 -17q-220 0 -302.5 84.5t-82.5 302.5v395h367v-266q0 -125 14 -166q23 -66 106 -74q15 -2 33 -2q26 0 67 16t60 36v444z" />
    <glyph glyph-name="afii10090" unicode="&#x448;" horiz-adv-x="1906" 
d="M1804 1028l-39 -1028h-1663v1028h379v-788h246v780h373v-772h293v780h411z" />
    <glyph glyph-name="afii10091" unicode="&#x449;" horiz-adv-x="1718" 
d="M1690 209l-13 -526h-354v317h-1221v1018l338 24v-796l129 6l33 772h299v-791h215v791h357v-815h217z" />
    <glyph glyph-name="afii10092" unicode="&#x44a;" horiz-adv-x="1292" 
d="M1239 319q0 -319 -534 -319h-383v866l-299 4l10 154h682l14 -365q93 0 160.5 -6t137.5 -27t113.5 -57t71 -99t27.5 -151zM938 332q0 81 -64.5 130.5t-144.5 49.5v-358q87 0 148 56t61 122z" />
    <glyph glyph-name="afii10093" unicode="&#x44b;" horiz-adv-x="1658" 
d="M1556 0h-376v1024h376v-1024zM1065 350q0 -69 -20.5 -124t-52.5 -91t-82 -62t-97 -40t-111 -21.5t-110 -9.5t-107 -2h-383v1024h371v-336q49 6 102 6q91 0 174.5 -19t156 -58t116 -108t43.5 -159zM719 365q0 42 -27 72t-71 44.5t-86 20.5t-86 6v-285h92q178 0 178 142z
" />
    <glyph glyph-name="afii10094" unicode="&#x44c;" horiz-adv-x="1095" 
d="M1010 420q0 -76 -16.5 -137t-45 -104t-71.5 -75.5t-90.5 -52t-108.5 -31.5t-118.5 -16t-127.5 -4h-330v1030h373v-272q52 0 107 -6.5t117 -21t116 -40.5t98.5 -62t70.5 -89.5t26 -118.5zM705 385q0 59 -35 99.5t-82 57.5t-105 21v-373q92 5 157 63.5t65 131.5z" />
    <glyph glyph-name="afii10095" unicode="&#x44d;" horiz-adv-x="1136" 
d="M1085 510q0 -113 -53.5 -214t-139.5 -169t-194.5 -107.5t-218.5 -39.5q-106 0 -230.5 57.5t-174.5 144.5l100 107q59 -53 106 -76t115 -23q49 0 98.5 11.5t96 35t77.5 66t35 96.5q0 17 -4 25h-217l-12 180l250 10q-9 86 -78.5 160t-153.5 74q-40 0 -69 -19q8 -27 8 -59
q0 -84 -53.5 -148.5t-134.5 -64.5q-74 0 -129.5 56.5t-55.5 129.5q0 66 32.5 120t83 87.5t115.5 56t125 31.5t117 9q156 0 283.5 -68.5t201.5 -191.5t74 -277z" />
    <glyph glyph-name="afii10096" unicode="&#x44e;" horiz-adv-x="1722" 
d="M1671 559q0 -250 -150 -405.5t-401 -155.5q-200 0 -333.5 114.5t-168.5 313.5h-4l-161 -18v-398h-35q-43 0 -147 -3t-169 -3v1030h357v-454l159 16q18 85 61.5 166t108 149t156.5 109t195 41q532 0 532 -502zM1331 541q0 30 -9.5 76t-29 100.5t-59 92.5t-90.5 38
q-58 0 -100 -41.5t-62.5 -106t-29.5 -124t-9 -113.5q0 -60 18.5 -118.5t63.5 -103t106 -44.5q54 0 95.5 37t63 93.5t32 111t10.5 102.5z" />
    <glyph glyph-name="Euro" unicode="&#x20ac;" horiz-adv-x="1454" 
d="M1016 573l-615 -8q8 -80 43.5 -140.5t90 -95t116.5 -51t131 -16.5q63 0 117 16.5t109 56.5t89 71.5t99 97.5l186 -156q-79 -82 -149.5 -140.5t-154.5 -108t-179 -74.5t-201 -25q-97 0 -195 38.5t-181 108t-139 179t-64 239.5h-88l-6 127l94 6v95l-78 -5v142h113
q29 135 99 239.5t169.5 170.5t220 99.5t256.5 33.5q257 0 416 -156l-158 -162q-79 52 -139.5 70t-157.5 18q-365 0 -436 -313h752l-62 -135h-721v-93h684z" />
  </font>
</defs>
</svg>
