<svg xmlns="http://www.w3.org/2000/svg" viewBox="0 0 16 22" width="16" height="22"><g fill="none" fill-rule="nonzero"><path fill="#d78eff" d="M 2.564 0 h 10.872 c 0.892 0 1.215 0.093 1.54 0.267 c 0.327 0.174 0.583 0.43 0.757 0.756 c 0.174 0.326 0.267 0.65 0.267 1.54 v 16.873 c 0 0.892 -0.093 1.215 -0.267 1.54 c -0.174 0.327 -0.43 0.583 -0.756 0.757 c -0.326 0.174 -0.65 0.267 -1.54 0.267 H 2.563 c -0.892 0 -1.215 -0.093 -1.54 -0.267 a 1.817 1.817 0 0 1 -0.757 -0.756 C 0.093 20.65 0 20.327 0 19.437 V 2.563 c 0 -0.892 0.093 -1.215 0.267 -1.54 c 0.174 -0.327 0.43 -0.583 0.756 -0.757 C 1.35 0.093 1.673 0 2.563 0 Z" /><path fill="#fff" d="M 2 2.501 V 17.5 c 0 0.23 0.009 0.386 0.022 0.481 c 0.107 0.012 0.282 0.02 0.542 0.02 h 10.872 c 0.26 0 0.434 -0.008 0.542 -0.02 c 0.013 -0.095 0.022 -0.25 0.022 -0.481 V 2.5 c 0 -0.23 -0.009 -0.386 -0.022 -0.481 a 5.353 5.353 0 0 0 -0.542 -0.02 H 2.564 c -0.26 0 -0.435 0.008 -0.542 0.02 C 2.01 2.115 2 2.27 2 2.5 Z" /><path fill="#000" d="M 3 4 h 10 v 1 H 3 V 4 Z m 0 3 h 8 v 1 H 3 V 7 Z m 0 3 h 9 v 1 H 3 v -1 Z m 0 3 h 4 v 1 H 3 v -1 Z" /><circle fill="#9937ce" cx="8" cy="20" r="1" /></g></svg>