<svg xmlns="http://www.w3.org/2000/svg" viewBox="0 0 26 22" width="26" height="22"><g fill="none" fill-rule="nonzero"><path fill="#d78eff" d="M 15 21 a 1 1 0 0 1 -1 1 h -2 a 1 1 0 0 1 -1 -1 H 1 a 1 1 0 0 1 -1 -1 V 3 a 1 1 0 0 1 1 -1 h 24 a 1 1 0 0 1 1 1 v 17 a 1 1 0 0 1 -1 1 H 15 Z" /><path fill="#fff" d="M 13 1.265 C 14.266 0.422 15.488 0 16.666 0 C 19.155 0 21.6 0.422 24 1.265 v 18 A 21.973 21.973 0 0 0 16.666 18 c -1.178 0 -2.4 0.422 -3.666 1.265 C 11.734 18.422 10.512 18 9.334 18 C 6.845 18 4.4 18.422 2 19.265 v -18 A 21.973 21.973 0 0 1 9.334 0 c 1.178 0 2.4 0.422 3.666 1.265 Z" /><path fill="#000" d="M 4 4 h 7 v 1 H 4 V 4 Z m 0 3 h 6 v 1 H 4 V 7 Z m 0 3 h 6 v 1 H 4 v -1 Z m 0 3 h 3 v 1 H 4 v -1 Z m 11 -9 h 7 v 1 h -7 V 4 Z m 0 3 h 4 v 1 h -4 V 7 Z m 0 3 h 5 v 1 h -5 v -1 Z" /></g></svg>